<?xml version="1.0" standalone="no"?>
<!DOCTYPE svg PUBLIC "-//W3C//DTD SVG 20010904//EN"
 "http://www.w3.org/TR/2001/REC-SVG-20010904/DTD/svg10.dtd">
<svg version="1.0" xmlns="http://www.w3.org/2000/svg"
 width="900.000000pt" height="900.000000pt" viewBox="0 0 900.000000 900.000000"
 preserveAspectRatio="xMidYMid meet">

<g transform="translate(0.000000,900.000000) scale(0.100000,-0.100000)"
fill="#000000" stroke="none">
<path d="M4655 7970 c10 -11 20 -20 23 -20 3 0 -3 9 -13 20 -10 11 -20 20 -23
20 -3 0 3 -9 13 -20z"/>
<path d="M4348 7973 c17 -2 47 -2 65 0 17 2 3 4 -33 4 -36 0 -50 -2 -32 -4z"/>
<path d="M4780 7956 c-8 -11 -9 -20 -1 -33 10 -16 11 -15 9 7 -3 22 1 25 29
25 17 0 29 3 26 7 -8 13 -50 9 -63 -6z"/>
<path d="M4247 7939 c4 -13 8 -18 11 -10 2 7 -1 18 -6 23 -8 8 -9 4 -5 -13z"/>
<path d="M4362 7935 c0 -16 2 -22 5 -12 2 9 2 23 0 30 -3 6 -5 -1 -5 -18z"/>
<path d="M4551 7943 c-1 -6 -4 -20 -7 -30 -5 -15 -4 -15 5 -3 9 12 11 13 11 1
0 -8 2 -12 5 -9 3 3 1 16 -4 29 -5 13 -10 19 -10 12z"/>
<path d="M4684 7936 c-3 -8 -4 -31 -2 -52 3 -36 4 -35 8 14 5 53 4 63 -6 38z"/>
<path d="M4862 7920 c0 -19 2 -27 5 -17 2 9 2 25 0 35 -3 9 -5 1 -5 -18z"/>
<path d="M4141 7914 c0 -11 3 -14 6 -6 3 7 2 16 -1 19 -3 4 -6 -2 -5 -13z"/>
<path d="M4472 7900 c0 -14 2 -19 5 -12 2 6 2 18 0 25 -3 6 -5 1 -5 -13z"/>
<path d="M4492 7895 c0 -16 2 -22 5 -12 2 9 2 23 0 30 -3 6 -5 -1 -5 -18z"/>
<path d="M4702 7890 c0 -19 2 -27 5 -17 2 9 2 25 0 35 -3 9 -5 1 -5 -18z"/>
<path d="M5080 7885 c0 -9 6 -12 15 -9 8 4 15 7 15 9 0 2 -7 5 -15 9 -9 3 -15
0 -15 -9z"/>
<path d="M4352 7850 c0 -19 2 -27 5 -17 2 9 2 25 0 35 -3 9 -5 1 -5 -18z"/>
<path d="M4161 7854 c0 -11 3 -14 6 -6 3 7 2 16 -1 19 -3 4 -6 -2 -5 -13z"/>
<path d="M3910 7856 c0 -2 7 -7 16 -10 8 -3 12 -2 9 4 -6 10 -25 14 -25 6z"/>
<path d="M4251 7844 c0 -11 3 -14 6 -6 3 7 2 16 -1 19 -3 4 -6 -2 -5 -13z"/>
<path d="M4272 7840 c0 -14 2 -19 5 -12 2 6 2 18 0 25 -3 6 -5 1 -5 -13z"/>
<path d="M4492 7840 c0 -14 2 -19 5 -12 2 6 2 18 0 25 -3 6 -5 1 -5 -13z"/>
<path d="M4472 7830 c0 -14 2 -19 5 -12 2 6 2 18 0 25 -3 6 -5 1 -5 -13z"/>
<path d="M5103 7790 c0 -36 2 -50 4 -32 2 17 2 47 0 65 -2 17 -4 3 -4 -33z"/>
<path d="M4125 7820 c10 -11 20 -20 23 -20 3 0 -3 9 -13 20 -10 11 -20 20 -23
20 -3 0 3 -9 13 -20z"/>
<path d="M3940 7821 c0 -6 4 -13 10 -16 6 -3 7 1 4 9 -7 18 -14 21 -14 7z"/>
<path d="M5083 7785 c0 -27 2 -38 4 -22 2 15 2 37 0 50 -2 12 -4 0 -4 -28z"/>
<path d="M3820 7810 c-9 -6 -10 -10 -3 -10 6 0 15 5 18 10 8 12 4 12 -15 0z"/>
<path d="M4673 7815 c4 -5 -5 -17 -20 -27 -16 -10 -23 -18 -17 -18 7 0 22 8
35 18 18 15 20 20 8 27 -8 5 -11 4 -6 0z"/>
<path d="M4740 7801 c0 -11 4 -22 9 -25 4 -3 6 6 3 19 -5 30 -12 33 -12 6z"/>
<path d="M5239 7803 c-13 -16 -12 -17 4 -4 9 7 17 15 17 17 0 8 -8 3 -21 -13z"/>
<path d="M4051 7794 c0 -11 3 -14 6 -6 3 7 2 16 -1 19 -3 4 -6 -2 -5 -13z"/>
<path d="M4823 7780 c-11 -31 -4 -40 15 -17 5 6 7 20 3 30 -5 14 -8 12 -18
-13z"/>
<path d="M5042 7785 c-17 -37 -14 -45 4 -12 9 16 14 31 11 33 -2 2 -9 -7 -15
-21z"/>
<path d="M5175 7780 c-10 -11 -16 -22 -14 -24 2 -2 12 7 22 20 22 29 17 32 -8
4z"/>
<path d="M4276 7775 c-9 -26 -7 -32 5 -12 6 10 9 21 6 23 -2 3 -7 -2 -11 -11z"/>
<path d="M4430 7780 c-9 -6 -10 -10 -3 -10 6 0 15 5 18 10 8 12 4 12 -15 0z"/>
<path d="M4580 7780 c8 -5 20 -10 25 -10 6 0 3 5 -5 10 -8 5 -19 10 -25 10 -5
0 -3 -5 5 -10z"/>
<path d="M5316 7776 c3 -9 9 -15 12 -14 4 1 18 -3 32 -10 24 -13 24 -12 5 3
-36 29 -55 37 -49 21z"/>
<path d="M3970 7761 c0 -6 4 -13 10 -16 6 -3 7 1 4 9 -7 18 -14 21 -14 7z"/>
<path d="M4170 7756 c7 -7 13 -7 20 0 6 6 3 10 -10 10 -13 0 -16 -4 -10 -10z"/>
<path d="M4298 7753 c7 -3 16 -2 19 1 4 3 -2 6 -13 5 -11 0 -14 -3 -6 -6z"/>
<path d="M4073 7723 c1 -18 6 -28 10 -24 4 4 3 18 -2 32 -9 23 -9 22 -8 -8z"/>
<path d="M5130 7735 c-7 -9 -8 -15 -2 -15 5 0 12 7 16 15 3 8 4 15 2 15 -2 0
-9 -7 -16 -15z"/>
<path d="M5205 7739 c-4 -6 -5 -12 -2 -15 2 -3 7 2 10 11 7 17 1 20 -8 4z"/>
<path d="M5012 7720 c-9 -15 -9 -21 1 -26 6 -4 9 -4 5 1 -4 4 -3 14 4 22 6 7
9 15 7 18 -3 2 -10 -4 -17 -15z"/>
<path d="M5415 7709 c-4 -6 -5 -12 -2 -15 2 -3 7 2 10 11 7 17 1 20 -8 4z"/>
<path d="M3866 7698 c3 -5 10 -6 15 -3 13 9 11 12 -6 12 -8 0 -12 -4 -9 -9z"/>
<path d="M3615 7663 c11 -3 27 -10 35 -17 13 -10 13 -9 1 7 -7 9 -23 16 -35
16 -20 -1 -20 -2 -1 -6z"/>
<path d="M3979 7653 c-13 -16 -12 -17 4 -4 9 7 17 15 17 17 0 8 -8 3 -21 -13z"/>
<path d="M5250 7650 c-6 -11 -8 -20 -6 -20 3 0 10 9 16 20 6 11 8 20 6 20 -3
0 -10 -9 -16 -20z"/>
<path d="M5499 7657 c6 -8 7 -18 3 -22 -4 -5 -1 -5 6 -1 10 6 10 11 1 22 -6 8
-14 14 -16 14 -3 0 0 -6 6 -13z"/>
<path d="M3573 7645 c-3 -9 -3 -18 -1 -21 3 -3 8 4 11 16 6 23 -1 27 -10 5z"/>
<path d="M5332 7640 c0 -14 2 -19 5 -12 2 6 2 18 0 25 -3 6 -5 1 -5 -13z"/>
<path d="M4518 7603 c18 -2 45 -2 60 0 15 2 0 4 -33 4 -33 0 -45 -2 -27 -4z"/>
<path d="M5472 7590 c0 -14 2 -19 5 -12 2 6 2 18 0 25 -3 6 -5 1 -5 -13z"/>
<path d="M5236 7591 c-3 -5 1 -11 9 -14 9 -4 12 -1 8 9 -6 16 -10 17 -17 5z"/>
<path d="M3638 7583 c7 -3 16 -2 19 1 4 3 -2 6 -13 5 -11 0 -14 -3 -6 -6z"/>
<path d="M3678 7583 c7 -3 16 -2 19 1 4 3 -2 6 -13 5 -11 0 -14 -3 -6 -6z"/>
<path d="M4459 7588 c-5 -16 -3 -55 3 -52 4 3 7 16 6 29 -2 21 -6 31 -9 23z"/>
<path d="M4718 7583 c7 -3 16 -2 19 1 4 3 -2 6 -13 5 -11 0 -14 -3 -6 -6z"/>
<path d="M4768 7573 c7 -3 16 -2 19 1 4 3 -2 6 -13 5 -11 0 -14 -3 -6 -6z"/>
<path d="M4335 7539 c-4 -6 -5 -12 -2 -15 2 -3 7 2 10 11 7 17 1 20 -8 4z"/>
<path d="M3741 7533 c-1 -7 -1 -16 0 -19 0 -4 -5 -11 -13 -15 -10 -7 -10 -9 0
-9 15 0 26 24 19 42 -4 10 -6 10 -6 1z"/>
<path d="M4905 7530 c27 -12 43 -12 25 0 -8 5 -22 9 -30 9 -10 0 -8 -3 5 -9z"/>
<path d="M4397 7506 c-4 -10 -1 -13 9 -9 7 3 14 9 14 14 0 14 -17 10 -23 -5z"/>
<path d="M4765 7500 c10 -11 20 -20 23 -20 3 0 -3 9 -13 20 -10 11 -20 20 -23
20 -3 0 3 -9 13 -20z"/>
<path d="M5340 7516 c0 -2 8 -10 18 -17 15 -13 16 -12 3 4 -13 16 -21 21 -21
13z"/>
<path d="M5471 7494 c0 -11 3 -14 6 -6 3 7 2 16 -1 19 -3 4 -6 -2 -5 -13z"/>
<path d="M3640 7496 c0 -2 8 -10 18 -17 15 -13 16 -12 3 4 -13 16 -21 21 -21
13z"/>
<path d="M4320 7491 c0 -6 4 -13 10 -16 6 -3 7 1 4 9 -7 18 -14 21 -14 7z"/>
<path d="M4638 7493 c7 -3 16 -2 19 1 4 3 -2 6 -13 5 -11 0 -14 -3 -6 -6z"/>
<path d="M4841 7483 c7 -12 15 -20 18 -17 3 2 -3 12 -13 22 -17 16 -18 16 -5
-5z"/>
<path d="M4990 7496 c0 -2 7 -7 16 -10 8 -3 12 -2 9 4 -6 10 -25 14 -25 6z"/>
<path d="M4586 7462 c-2 -4 4 -8 14 -8 10 0 16 4 14 8 -3 4 -9 8 -14 8 -5 0
-11 -4 -14 -8z"/>
<path d="M3606 7433 c7 -37 14 -42 14 -10 0 14 -4 28 -9 32 -6 3 -8 -6 -5 -22z"/>
<path d="M5430 7450 c-9 -6 -10 -10 -3 -10 6 0 15 5 18 10 8 12 4 12 -15 0z"/>
<path d="M5461 7444 c0 -11 3 -14 6 -6 3 7 2 16 -1 19 -3 4 -6 -2 -5 -13z"/>
<path d="M4385 7440 c27 -12 43 -12 25 0 -8 5 -22 9 -30 9 -10 0 -8 -3 5 -9z"/>
<path d="M4141 7428 c0 -9 -4 -25 -7 -35 -5 -17 -5 -17 6 0 6 10 9 25 7 35 -4
15 -5 15 -6 0z"/>
<path d="M5573 7425 c0 -8 4 -12 9 -9 5 3 6 10 3 15 -9 13 -12 11 -12 -6z"/>
<path d="M4076 7417 c3 -10 9 -15 12 -12 3 3 0 11 -7 18 -10 9 -11 8 -5 -6z"/>
<path d="M5717 7410 c18 -4 39 -11 46 -16 7 -5 4 -1 -6 9 -11 9 -31 17 -46 16
-24 -1 -23 -2 6 -9z"/>
<path d="M4508 7380 c18 -18 35 -44 38 -59 3 -14 10 -37 15 -51 6 -19 7 -15 2
15 -7 48 -34 95 -65 114 -16 9 -13 4 10 -19z"/>
<path d="M4777 7380 c3 -11 10 -23 16 -27 7 -4 8 0 4 11 -4 10 -7 22 -7 27 0
5 -4 9 -9 9 -5 0 -7 -9 -4 -20z"/>
<path d="M5090 7390 c-9 -6 -10 -10 -3 -10 6 0 15 5 18 10 8 12 4 12 -15 0z"/>
<path d="M3308 7358 c-13 -13 -17 -17 -8 -10 9 6 22 12 28 12 7 0 12 5 12 10
0 15 -6 12 -32 -12z"/>
<path d="M3795 7370 c3 -5 8 -10 11 -10 2 0 4 5 4 10 0 6 -5 10 -11 10 -5 0
-7 -4 -4 -10z"/>
<path d="M4021 7363 c-1 -12 -7 -24 -13 -26 -10 -4 -10 -6 0 -6 15 -1 26 23
19 41 -3 7 -6 3 -6 -9z"/>
<path d="M3565 7360 c-16 -7 -17 -9 -3 -9 9 -1 20 4 23 9 7 11 7 11 -20 0z"/>
<path d="M4379 7357 c5 -5 19 -7 32 -5 20 3 19 5 -9 9 -20 3 -29 2 -23 -4z"/>
<path d="M5778 7340 c-3 -19 -5 -36 -4 -36 0 -1 10 8 21 19 11 11 15 17 8 13
-7 -4 -13 2 -15 16 -3 18 -5 15 -10 -12z"/>
<path d="M3445 7340 c10 -11 20 -20 23 -20 3 0 -3 9 -13 20 -10 11 -20 20 -23
20 -3 0 3 -9 13 -20z"/>
<path d="M4686 7345 c-3 -8 -1 -15 4 -15 6 0 10 7 10 15 0 8 -2 15 -4 15 -2 0
-6 -7 -10 -15z"/>
<path d="M4065 7330 c-3 -6 1 -7 9 -4 18 7 21 14 7 14 -6 0 -13 -4 -16 -10z"/>
<path d="M5016 7318 c10 -14 21 -24 23 -22 3 3 -6 15 -18 27 l-24 22 19 -27z"/>
<path d="M5166 7318 c16 -12 37 -31 47 -42 9 -10 17 -14 17 -8 0 11 -72 72
-85 72 -4 0 5 -10 21 -22z"/>
<path d="M5265 7320 c10 -11 20 -20 23 -20 3 0 -3 9 -13 20 -10 11 -20 20 -23
20 -3 0 3 -9 13 -20z"/>
<path d="M5587 7333 c-4 -3 -7 -20 -7 -36 0 -39 13 -27 14 13 1 16 1 30 0 30
0 0 -4 -3 -7 -7z"/>
<path d="M4485 7310 c10 -11 20 -20 23 -20 3 0 -3 9 -13 20 -10 11 -20 20 -23
20 -3 0 3 -9 13 -20z"/>
<path d="M3771 7304 c0 -11 3 -14 6 -6 3 7 2 16 -1 19 -3 4 -6 -2 -5 -13z"/>
<path d="M4693 7305 c-3 -9 -3 -18 -1 -21 3 -3 8 4 11 16 6 23 -1 27 -10 5z"/>
<path d="M4345 7290 c10 -11 20 -20 23 -20 3 0 -3 9 -13 20 -10 11 -20 20 -23
20 -3 0 3 -9 13 -20z"/>
<path d="M5130 7275 c13 -14 26 -25 28 -25 3 0 -5 11 -18 25 -13 14 -26 25
-28 25 -3 0 5 -11 18 -25z"/>
<path d="M4636 7277 c3 -10 9 -15 12 -12 3 3 0 11 -7 18 -10 9 -11 8 -5 -6z"/>
<path d="M4706 7273 c-6 -14 -5 -15 5 -6 7 7 10 15 7 18 -3 3 -9 -2 -12 -12z"/>
<path d="M4530 7240 c11 -22 23 -40 25 -40 3 0 -4 18 -15 40 -11 22 -23 40
-25 40 -3 0 4 -18 15 -40z"/>
<path d="M4998 7273 c7 -3 16 -2 19 1 4 3 -2 6 -13 5 -11 0 -14 -3 -6 -6z"/>
<path d="M4810 7245 c0 -14 4 -25 9 -25 4 0 6 11 3 25 -2 14 -6 25 -8 25 -2 0
-4 -11 -4 -25z"/>
<path d="M3354 7246 c1 -8 5 -18 8 -22 4 -3 5 1 4 10 -1 8 -5 18 -8 22 -4 3
-5 -1 -4 -10z"/>
<path d="M3732 7248 c-15 -15 -16 -52 -2 -43 6 4 8 11 4 16 -3 5 0 16 6 24 15
18 9 20 -8 3z"/>
<path d="M3966 7243 c-6 -14 -5 -15 5 -6 7 7 10 15 7 18 -3 3 -9 -2 -12 -12z"/>
<path d="M4130 7250 c-18 -12 -2 -12 25 0 13 6 15 9 5 9 -8 0 -22 -4 -30 -9z"/>
<path d="M5351 7238 c13 -13 35 -32 49 -42 14 -11 6 -1 -18 22 -24 23 -46 42
-49 42 -3 0 5 -10 18 -22z"/>
<path d="M5600 7250 c0 -5 5 -10 11 -10 5 0 7 5 4 10 -3 6 -8 10 -11 10 -2 0
-4 -4 -4 -10z"/>
<path d="M3465 7239 c-4 -6 -5 -12 -2 -15 2 -3 7 2 10 11 7 17 1 20 -8 4z"/>
<path d="M4715 7220 c-4 -17 -5 -34 -2 -36 3 -3 8 9 12 26 4 17 5 34 2 36 -3
3 -8 -9 -12 -26z"/>
<path d="M4960 7246 c0 -2 8 -10 18 -17 15 -13 16 -12 3 4 -13 16 -21 21 -21
13z"/>
<path d="M5080 7241 c0 -6 4 -13 10 -16 6 -3 7 1 4 9 -7 18 -14 21 -14 7z"/>
<path d="M5185 7230 c10 -11 20 -20 23 -20 3 0 -3 9 -13 20 -10 11 -20 20 -23
20 -3 0 3 -9 13 -20z"/>
<path d="M4294 7215 c3 -21 16 -31 16 -12 0 9 -4 18 -9 21 -5 4 -8 -1 -7 -9z"/>
<path d="M4900 7226 c0 -2 7 -7 16 -10 8 -3 12 -2 9 4 -6 10 -25 14 -25 6z"/>
<path d="M5296 7210 c5 -8 9 -18 9 -22 0 -3 3 -9 7 -13 3 -4 5 0 4 9 -1 9 -8
22 -16 29 -10 10 -11 9 -4 -3z"/>
<path d="M4831 7194 c0 -11 3 -14 6 -6 3 7 2 16 -1 19 -3 4 -6 -2 -5 -13z"/>
<path d="M4361 7155 c-1 -27 -4 -58 -6 -69 -2 -12 0 -15 6 -9 6 6 8 37 6 69
l-3 59 -3 -50z"/>
<path d="M4470 7167 c0 -20 4 -38 9 -42 6 -3 7 10 4 32 -8 50 -13 55 -13 10z"/>
<path d="M4892 7184 c10 -10 20 -16 22 -13 3 3 -5 11 -17 18 -21 13 -21 12 -5
-5z"/>
<path d="M3660 7171 c0 -5 5 -13 10 -16 6 -3 10 -2 10 4 0 5 -4 13 -10 16 -5
3 -10 2 -10 -4z"/>
<path d="M5666 7167 c3 -10 9 -15 12 -12 3 3 0 11 -7 18 -10 9 -11 8 -5 -6z"/>
<path d="M4146 7157 c3 -10 9 -15 12 -12 3 3 0 11 -7 18 -10 9 -11 8 -5 -6z"/>
<path d="M4216 7153 c-6 -14 -5 -15 5 -6 7 7 10 15 7 18 -3 3 -9 -2 -12 -12z"/>
<path d="M4610 7166 c0 -2 13 -6 29 -8 17 -2 28 -1 25 4 -5 8 -54 12 -54 4z"/>
<path d="M5075 7161 c-3 -5 -2 -12 3 -15 5 -3 9 1 9 9 0 17 -3 19 -12 6z"/>
<path d="M5425 7155 c11 -9 19 -20 18 -24 -1 -4 5 -8 12 -8 19 0 1 24 -29 38
-21 10 -21 10 -1 -6z"/>
<path d="M5762 7145 c6 -13 15 -22 19 -19 5 2 1 14 -9 24 -22 26 -24 25 -10
-5z"/>
<path d="M3748 7148 c6 -6 18 -8 28 -6 14 3 12 5 -9 10 -19 3 -25 2 -19 -4z"/>
<path d="M4525 7149 c-4 -6 -4 -13 -1 -16 3 -4 6 -1 6 6 0 7 5 9 12 5 7 -4 8
-3 4 4 -9 15 -13 15 -21 1z"/>
<path d="M4794 7141 c20 -22 26 -25 26 -13 0 4 -10 13 -22 21 -23 14 -23 14
-4 -8z"/>
<path d="M5336 7148 c3 -5 10 -6 15 -3 13 9 11 12 -6 12 -8 0 -12 -4 -9 -9z"/>
<path d="M3276 7142 c-3 -5 1 -9 9 -9 8 0 15 4 15 9 0 4 -4 8 -9 8 -6 0 -12
-4 -15 -8z"/>
<path d="M4970 7146 c0 -2 9 -6 20 -9 11 -3 18 -1 14 4 -5 9 -34 13 -34 5z"/>
<path d="M5260 7146 c0 -2 7 -9 15 -16 13 -11 14 -10 9 4 -5 14 -24 23 -24 12z"/>
<path d="M3358 7133 c7 -3 16 -2 19 1 4 3 -2 6 -13 5 -11 0 -14 -3 -6 -6z"/>
<path d="M3963 7133 c9 -2 23 -2 30 0 6 3 -1 5 -18 5 -16 0 -22 -2 -12 -5z"/>
<path d="M4661 7129 c0 -9 -8 -22 -16 -29 -8 -7 -15 -16 -15 -21 0 -5 9 0 21
12 11 11 18 28 16 37 -4 15 -5 15 -6 1z"/>
<path d="M4711 7130 c0 -8 4 -22 9 -30 12 -18 12 -2 0 25 -6 13 -9 15 -9 5z"/>
<path d="M5213 7125 c0 -8 3 -13 5 -10 3 3 19 -7 36 -22 27 -25 27 -23 -3 10
-19 20 -36 37 -36 37 -1 0 -2 -7 -2 -15z"/>
<path d="M3827 7123 c-9 -9 -9 -41 1 -46 4 -3 7 8 7 24 0 16 0 29 -1 29 0 0
-4 -3 -7 -7z"/>
<path d="M4245 7098 c-4 -18 -12 -40 -19 -48 -9 -13 -9 -13 6 -2 17 13 34 69
25 78 -3 3 -8 -10 -12 -28z"/>
<path d="M4291 7114 c0 -11 3 -14 6 -6 3 7 2 16 -1 19 -3 4 -6 -2 -5 -13z"/>
<path d="M4832 7105 c0 -16 2 -22 5 -12 2 9 2 23 0 30 -3 6 -5 -1 -5 -18z"/>
<path d="M4900 7126 c0 -2 8 -10 18 -17 15 -13 16 -12 3 4 -13 16 -21 21 -21
13z"/>
<path d="M3235 7100 c10 -11 20 -20 23 -20 3 0 -3 9 -13 20 -10 11 -20 20 -23
20 -3 0 3 -9 13 -20z"/>
<path d="M4583 7040 c0 -47 2 -66 4 -42 2 23 2 61 0 85 -2 23 -4 4 -4 -43z"/>
<path d="M5306 7110 c5 -8 9 -18 9 -22 0 -5 4 -8 8 -9 18 -2 16 9 -5 27 -13
11 -18 13 -12 4z"/>
<path d="M5395 7100 c10 -11 20 -20 23 -20 3 0 -3 9 -13 20 -10 11 -20 20 -23
20 -3 0 3 -9 13 -20z"/>
<path d="M3981 7108 c2 -2 18 -14 34 -28 l30 -25 -24 28 c-14 15 -29 27 -34
27 -6 0 -8 -1 -6 -2z"/>
<path d="M5749 7093 c-13 -16 -12 -17 4 -4 9 7 17 15 17 17 0 8 -8 3 -21 -13z"/>
<path d="M3892 7070 c0 -14 2 -19 5 -12 2 6 2 18 0 25 -3 6 -5 1 -5 -13z"/>
<path d="M4190 7070 c-6 -11 -8 -20 -6 -20 3 0 10 9 16 20 6 11 8 20 6 20 -3
0 -10 -9 -16 -20z"/>
<path d="M4280 7074 c0 -8 5 -12 10 -9 6 4 8 11 5 16 -9 14 -15 11 -15 -7z"/>
<path d="M5090 7065 c13 -14 26 -25 28 -25 3 0 -5 11 -18 25 -13 14 -26 25
-28 25 -3 0 5 -11 18 -25z"/>
<path d="M5151 7074 c6 -7 16 -11 21 -8 11 7 3 17 -18 20 -12 2 -13 -1 -3 -12z"/>
<path d="M5716 7077 c3 -10 9 -15 12 -12 3 3 0 11 -7 18 -10 9 -11 8 -5 -6z"/>
<path d="M5390 7076 c0 -2 8 -10 18 -17 15 -13 16 -12 3 4 -13 16 -21 21 -21
13z"/>
<path d="M4968 7047 c-3 -19 -2 -25 4 -19 6 6 8 18 6 28 -3 14 -5 12 -10 -9z"/>
<path d="M4318 7053 c7 -3 16 -2 19 1 4 3 -2 6 -13 5 -11 0 -14 -3 -6 -6z"/>
<path d="M4502 7030 c0 -19 2 -27 5 -17 2 9 2 25 0 35 -3 9 -5 1 -5 -18z"/>
<path d="M4885 7040 c10 -11 20 -20 23 -20 3 0 -3 9 -13 20 -10 11 -20 20 -23
20 -3 0 3 -9 13 -20z"/>
<path d="M5354 7046 c3 -24 22 -40 31 -27 3 7 1 10 -6 9 -7 -2 -13 2 -14 9 0
6 -3 14 -7 18 -3 4 -5 0 -4 -9z"/>
<path d="M5741 7044 c0 -11 3 -14 6 -6 3 7 2 16 -1 19 -3 4 -6 -2 -5 -13z"/>
<path d="M4041 7045 c1 -19 18 -51 18 -35 0 8 -4 22 -9 30 -5 8 -9 11 -9 5z"/>
<path d="M5050 7042 c0 -12 19 -26 26 -19 2 2 -2 10 -11 17 -9 8 -15 8 -15 2z"/>
<path d="M3115 7029 c-4 -6 -5 -12 -2 -15 2 -3 7 2 10 11 7 17 1 20 -8 4z"/>
<path d="M4416 7018 c-13 -66 -16 -92 -7 -83 5 6 11 31 14 58 5 49 1 64 -7 25z"/>
<path d="M4462 7015 c0 -16 2 -22 5 -12 2 9 2 23 0 30 -3 6 -5 -1 -5 -18z"/>
<path d="M4730 7035 c0 -2 10 -10 23 -16 20 -11 21 -11 8 4 -13 16 -31 23 -31
12z"/>
<path d="M5130 7030 c0 -5 5 -10 11 -10 5 0 7 5 4 10 -3 6 -8 10 -11 10 -2 0
-4 -4 -4 -10z"/>
<path d="M5751 7013 c-1 -18 13 -23 29 -11 12 8 12 9 -2 5 -9 -3 -19 -1 -22 6
-3 9 -5 9 -5 0z"/>
<path d="M4331 6994 c0 -11 3 -14 6 -6 3 7 2 16 -1 19 -3 4 -6 -2 -5 -13z"/>
<path d="M5104 6985 c15 -14 30 -25 33 -25 4 0 -4 11 -17 25 -13 14 -28 25
-33 25 -6 0 2 -11 17 -25z"/>
<path d="M5385 7001 c-3 -5 -2 -12 3 -15 5 -3 9 1 9 9 0 17 -3 19 -12 6z"/>
<path d="M5316 6988 c3 -5 10 -6 15 -3 13 9 11 12 -6 12 -8 0 -12 -4 -9 -9z"/>
<path d="M5530 6980 c6 -11 13 -20 16 -20 2 0 0 9 -6 20 -6 11 -13 20 -16 20
-2 0 0 -9 6 -20z"/>
<path d="M4048 6967 c-3 -19 -2 -25 4 -19 6 6 8 18 6 28 -3 14 -5 12 -10 -9z"/>
<path d="M4530 6974 c0 -11 -6 -29 -14 -40 -13 -18 -13 -21 -1 -21 15 0 33 63
21 74 -3 4 -6 -2 -6 -13z"/>
<path d="M4697 6979 c7 -7 15 -10 18 -7 3 3 -2 9 -12 12 -14 6 -15 5 -6 -5z"/>
<path d="M3940 6960 c-6 -11 -8 -20 -6 -20 3 0 10 9 16 20 6 11 8 20 6 20 -3
0 -10 -9 -16 -20z"/>
<path d="M4452 6950 c0 -19 2 -27 5 -17 2 9 2 25 0 35 -3 9 -5 1 -5 -18z"/>
<path d="M4981 6978 c2 -2 22 -19 44 -38 l40 -35 -34 38 c-19 20 -39 37 -45
37 -5 0 -7 -1 -5 -2z"/>
<path d="M4743 6955 c0 -8 4 -12 9 -9 5 3 6 10 3 15 -9 13 -12 11 -12 -6z"/>
<path d="M4681 6943 c7 -12 15 -20 18 -17 3 2 -3 12 -13 22 -17 16 -18 16 -5
-5z"/>
<path d="M4901 6944 c0 -11 3 -14 6 -6 3 7 2 16 -1 19 -3 4 -6 -2 -5 -13z"/>
<path d="M5205 6940 c10 -11 20 -20 23 -20 3 0 -3 9 -13 20 -10 11 -20 20 -23
20 -3 0 3 -9 13 -20z"/>
<path d="M4560 6939 c0 -5 5 -7 10 -4 6 3 10 8 10 11 0 2 -4 4 -10 4 -5 0 -10
-5 -10 -11z"/>
<path d="M5573 6922 c-1 -22 0 -24 9 -8 6 10 6 22 2 26 -5 5 -10 -3 -11 -18z"/>
<path d="M5945 6940 c-3 -6 1 -7 9 -4 18 7 21 14 7 14 -6 0 -13 -4 -16 -10z"/>
<path d="M4261 6913 c-10 -26 -10 -27 4 -9 8 11 15 23 15 28 0 15 -7 8 -19
-19z"/>
<path d="M4305 6925 c-3 -8 -7 -22 -10 -30 -2 -8 1 -17 8 -21 7 -4 9 -4 5 0
-3 4 -2 21 2 37 9 29 4 42 -5 14z"/>
<path d="M4812 6924 c10 -10 20 -16 22 -13 3 3 -5 11 -17 18 -21 13 -21 12 -5
-5z"/>
<path d="M5005 6890 c27 -27 51 -50 54 -50 3 0 -17 23 -44 50 -27 28 -51 50
-54 50 -3 0 17 -22 44 -50z"/>
<path d="M5366 6932 c-3 -5 1 -9 9 -9 8 0 12 4 9 9 -3 4 -7 8 -9 8 -2 0 -6 -4
-9 -8z"/>
<path d="M4197 6923 c-10 -9 -9 -23 1 -23 5 0 9 7 9 15 0 17 -1 18 -10 8z"/>
<path d="M5100 6921 c0 -6 4 -13 10 -16 6 -3 7 1 4 9 -7 18 -14 21 -14 7z"/>
<path d="M4395 6910 c3 -5 8 -10 11 -10 2 0 4 5 4 10 0 6 -5 10 -11 10 -5 0
-7 -4 -4 -10z"/>
<path d="M4637 6885 c7 -49 13 -58 13 -19 0 16 -5 36 -10 44 -6 10 -7 2 -3
-25z"/>
<path d="M4776 6906 c3 -9 10 -16 15 -16 5 0 9 -7 9 -15 0 -8 5 -15 10 -15 13
0 -2 31 -25 50 -13 11 -15 10 -9 -4z"/>
<path d="M5453 6905 c0 -8 3 -13 5 -10 3 3 19 -7 36 -22 27 -25 27 -23 -3 10
-19 20 -36 37 -36 37 -1 0 -2 -7 -2 -15z"/>
<path d="M5520 6915 c0 -5 5 -17 10 -25 5 -8 10 -10 10 -5 0 6 -5 17 -10 25
-5 8 -10 11 -10 5z"/>
<path d="M4581 6894 c0 -11 3 -14 6 -6 3 7 2 16 -1 19 -3 4 -6 -2 -5 -13z"/>
<path d="M5315 6901 c-6 -11 13 -26 22 -17 4 3 1 6 -6 6 -7 0 -9 5 -6 10 3 6
4 10 1 10 -3 0 -7 -4 -11 -9z"/>
<path d="M5380 6899 c0 -5 5 -7 10 -4 6 3 10 8 10 11 0 2 -4 4 -10 4 -5 0 -10
-5 -10 -11z"/>
<path d="M5065 6890 c3 -5 11 -10 16 -10 6 0 7 5 4 10 -3 6 -11 10 -16 10 -6
0 -7 -4 -4 -10z"/>
<path d="M5586 6892 c-3 -5 1 -9 9 -9 8 0 12 4 9 9 -3 4 -7 8 -9 8 -2 0 -6 -4
-9 -8z"/>
<path d="M3425 6880 c-3 -6 1 -7 9 -4 18 7 21 14 7 14 -6 0 -13 -4 -16 -10z"/>
<path d="M3816 6881 c-4 -5 -2 -12 3 -15 5 -4 12 -2 15 3 4 5 2 12 -3 15 -5 4
-12 2 -15 -3z"/>
<path d="M4550 6870 c0 -11 4 -20 9 -20 5 0 7 9 4 20 -3 11 -7 20 -9 20 -2 0
-4 -9 -4 -20z"/>
<path d="M4596 6857 c3 -10 9 -15 12 -12 3 3 0 11 -7 18 -10 9 -11 8 -5 -6z"/>
<path d="M4931 6834 c19 -22 36 -39 39 -37 2 2 -13 20 -35 41 l-39 37 35 -41z"/>
<path d="M5953 6863 c9 -2 23 -2 30 0 6 3 -1 5 -18 5 -16 0 -22 -2 -12 -5z"/>
<path d="M3764 6838 l-19 -23 23 19 c21 18 27 26 19 26 -2 0 -12 -10 -23 -22z"/>
<path d="M6027 6840 c12 -14 23 -38 26 -55 l4 -30 2 31 c1 22 -7 37 -26 55
l-28 24 22 -25z"/>
<path d="M4446 6842 c-8 -13 -3 -102 6 -102 5 0 8 25 7 55 -2 55 -4 61 -13 47z"/>
<path d="M4491 6798 c-1 -32 3 -58 8 -58 5 0 6 21 4 48 -7 70 -11 74 -12 10z"/>
<path d="M3045 6829 c-4 -6 -5 -12 -2 -15 2 -3 7 2 10 11 7 17 1 20 -8 4z"/>
<path d="M3188 6833 c6 -2 18 -2 25 0 6 3 1 5 -13 5 -14 0 -19 -2 -12 -5z"/>
<path d="M3411 6824 c0 -11 3 -14 6 -6 3 7 2 16 -1 19 -3 4 -6 -2 -5 -13z"/>
<path d="M3505 6829 c-4 -6 -4 -13 -1 -16 3 -4 6 -1 6 6 0 7 5 9 10 6 6 -3 10
-1 10 4 0 14 -17 14 -25 0z"/>
<path d="M4565 6830 c3 -5 8 -10 11 -10 2 0 4 5 4 10 0 6 -5 10 -11 10 -5 0
-7 -4 -4 -10z"/>
<path d="M5105 6830 c3 -5 8 -10 11 -10 2 0 4 5 4 10 0 6 -5 10 -11 10 -5 0
-7 -4 -4 -10z"/>
<path d="M5198 6833 c7 -3 16 -2 19 1 4 3 -2 6 -13 5 -11 0 -14 -3 -6 -6z"/>
<path d="M3600 6807 c13 -15 30 -40 37 -55 12 -26 13 -26 7 -2 -3 14 -20 39
-37 55 -29 27 -29 28 -7 2z"/>
<path d="M4090 6811 c-12 -24 -13 -54 -1 -47 8 5 22 66 15 66 -2 0 -8 -9 -14
-19z"/>
<path d="M4307 6824 c-4 -4 -7 -14 -7 -23 0 -11 3 -12 11 -4 6 6 10 16 7 23
-2 6 -7 8 -11 4z"/>
<path d="M4356 6807 c-5 -15 -6 -31 -2 -34 11 -11 18 5 14 34 l-4 28 -8 -28z"/>
<path d="M4403 6795 c0 -22 2 -30 4 -17 2 12 2 30 0 40 -3 9 -5 -1 -4 -23z"/>
<path d="M5435 6819 c-4 -6 -5 -12 -2 -15 2 -3 7 2 10 11 7 17 1 20 -8 4z"/>
<path d="M4253 6765 c0 -33 2 -45 4 -27 2 18 2 45 0 60 -2 15 -4 0 -4 -33z"/>
<path d="M4577 6803 c-4 -3 -7 -18 -6 -32 1 -26 1 -25 10 3 9 31 7 41 -4 29z"/>
<path d="M5358 6783 c5 -24 6 -25 12 -8 8 21 4 35 -9 35 -5 0 -6 -12 -3 -27z"/>
<path d="M3465 6790 c3 -5 8 -10 11 -10 2 0 4 5 4 10 0 6 -5 10 -11 10 -5 0
-7 -4 -4 -10z"/>
<path d="M4142 6775 c0 -16 2 -22 5 -12 2 9 2 23 0 30 -3 6 -5 -1 -5 -18z"/>
<path d="M4190 6785 c0 -8 5 -15 10 -15 6 0 10 7 10 15 0 8 -4 15 -10 15 -5 0
-10 -7 -10 -15z"/>
<path d="M4840 6796 c0 -2 8 -10 18 -17 15 -13 16 -12 3 4 -13 16 -21 21 -21
13z"/>
<path d="M3251 6774 c0 -11 3 -14 6 -6 3 7 2 16 -1 19 -3 4 -6 -2 -5 -13z"/>
<path d="M3515 6780 c-3 -5 -1 -10 4 -10 6 0 11 5 11 10 0 6 -2 10 -4 10 -3 0
-8 -4 -11 -10z"/>
<path d="M3745 6779 c-4 -6 -5 -12 -2 -15 2 -3 7 2 10 11 7 17 1 20 -8 4z"/>
<path d="M4660 6788 c0 -7 45 -77 57 -88 10 -9 -25 54 -41 75 -8 11 -16 17
-16 13z"/>
<path d="M5460 6774 c0 -10 5 -26 10 -34 8 -11 9 -7 4 15 -8 37 -14 45 -14 19z"/>
<path d="M3574 6726 c0 -48 2 -53 9 -31 6 16 6 40 0 58 -8 28 -9 25 -9 -27z"/>
<path d="M4975 6771 c-3 -5 -2 -12 3 -15 5 -3 9 1 9 9 0 17 -3 19 -12 6z"/>
<path d="M5242 6750 c14 -42 27 -46 14 -5 -6 19 -14 35 -18 35 -4 0 -2 -14 4
-30z"/>
<path d="M5300 6771 c0 -10 19 -25 25 -20 1 2 -3 10 -11 17 -8 7 -14 8 -14 3z"/>
<path d="M5378 6762 c-3 -11 1 -30 8 -43 10 -18 13 -20 14 -7 0 9 -4 19 -9 22
-5 3 -7 15 -4 26 3 11 3 20 0 20 -2 0 -7 -8 -9 -18z"/>
<path d="M5520 6767 c0 -10 8 -17 18 -17 9 0 13 4 7 8 -5 4 -13 11 -17 16 -5
5 -8 2 -8 -7z"/>
<path d="M4810 6766 c0 -2 8 -10 18 -17 15 -13 16 -12 3 4 -13 16 -21 21 -21
13z"/>
<path d="M4880 6756 c0 -3 9 -10 20 -16 11 -6 20 -8 20 -6 0 3 -9 10 -20 16
-11 6 -20 8 -20 6z"/>
<path d="M4101 6737 c-1 -21 25 -87 34 -87 3 0 3 5 -1 11 -4 7 -13 30 -20 53
-7 23 -13 33 -13 23z"/>
<path d="M4198 6725 c2 -14 9 -28 15 -32 7 -4 8 0 4 11 -4 10 -7 24 -7 32 0 8
-4 14 -9 14 -4 0 -6 -11 -3 -25z"/>
<path d="M4402 6725 c0 -16 2 -22 5 -12 2 9 2 23 0 30 -3 6 -5 -1 -5 -18z"/>
<path d="M4636 6738 c3 -10 9 -18 13 -18 3 0 15 -18 25 -40 11 -22 23 -40 28
-40 11 0 -27 66 -54 95 -16 17 -18 17 -12 3z"/>
<path d="M4736 6737 c3 -10 9 -15 12 -12 3 3 0 11 -7 18 -10 9 -11 8 -5 -6z"/>
<path d="M4780 6741 c0 -6 4 -13 10 -16 6 -3 7 1 4 9 -7 18 -14 21 -14 7z"/>
<path d="M5080 6742 c0 -5 14 -21 32 -38 l31 -29 -28 38 c-28 38 -35 44 -35
29z"/>
<path d="M5625 6733 c2 -10 4 -25 4 -32 1 -13 3 -13 14 -2 10 11 9 14 -1 18
-6 3 -10 9 -7 13 3 5 1 11 -4 14 -5 4 -8 -2 -6 -11z"/>
<path d="M4575 6730 c3 -5 8 -10 11 -10 2 0 4 5 4 10 0 6 -5 10 -11 10 -5 0
-7 -4 -4 -10z"/>
<path d="M5325 6730 c-3 -5 -1 -10 4 -10 6 0 11 5 11 10 0 6 -2 10 -4 10 -3 0
-8 -4 -11 -10z"/>
<path d="M5551 6719 c-1 -14 6 -34 15 -45 8 -10 12 -13 8 -5 -4 8 -11 28 -15
45 -6 29 -7 29 -8 5z"/>
<path d="M4357 6724 c-4 -4 -7 -14 -7 -23 0 -11 3 -12 11 -4 6 6 10 16 7 23
-2 6 -7 8 -11 4z"/>
<path d="M4501 6714 c0 -11 3 -14 6 -6 3 7 2 16 -1 19 -3 4 -6 -2 -5 -13z"/>
<path d="M4850 6721 c0 -6 4 -13 10 -16 6 -3 7 1 4 9 -7 18 -14 21 -14 7z"/>
<path d="M5020 6720 c0 -5 5 -10 11 -10 5 0 7 5 4 10 -3 6 -8 10 -11 10 -2 0
-4 -4 -4 -10z"/>
<path d="M5855 6720 c3 -5 8 -10 11 -10 2 0 4 5 4 10 0 6 -5 10 -11 10 -5 0
-7 -4 -4 -10z"/>
<path d="M3641 6704 c0 -11 3 -14 6 -6 3 7 2 16 -1 19 -3 4 -6 -2 -5 -13z"/>
<path d="M4160 6696 c0 -8 4 -17 9 -20 5 -4 7 3 4 14 -6 23 -13 26 -13 6z"/>
<path d="M4620 6706 c0 -13 62 -127 67 -122 3 3 -11 33 -31 68 -20 35 -36 59
-36 54z"/>
<path d="M3028 6693 c6 -2 18 -2 25 0 6 3 1 5 -13 5 -14 0 -19 -2 -12 -5z"/>
<path d="M4462 6670 c0 -19 2 -27 5 -17 2 9 2 25 0 35 -3 9 -5 1 -5 -18z"/>
<path d="M5036 6692 c-3 -5 1 -9 9 -9 8 0 12 4 9 9 -3 4 -7 8 -9 8 -2 0 -6 -4
-9 -8z"/>
<path d="M4300 6679 c0 -5 5 -7 10 -4 6 3 10 8 10 11 0 2 -4 4 -10 4 -5 0 -10
-5 -10 -11z"/>
<path d="M3626 6663 c-6 -14 -5 -15 5 -6 7 7 10 15 7 18 -3 3 -9 -2 -12 -12z"/>
<path d="M3702 6660 c0 -14 2 -19 5 -12 2 6 2 18 0 25 -3 6 -5 1 -5 -13z"/>
<path d="M3761 6663 c1 -10 5 -29 9 -43 7 -22 8 -21 9 12 1 20 -3 40 -9 43 -5
3 -10 -2 -9 -12z"/>
<path d="M4210 6673 c0 -5 5 -15 10 -23 7 -12 9 -10 7 8 -1 19 -17 33 -17 15z"/>
<path d="M4820 6670 c-8 -5 -12 -12 -9 -15 4 -3 12 1 19 10 14 17 11 19 -10 5z"/>
<path d="M4900 6676 c0 -2 8 -10 18 -17 15 -13 16 -12 3 4 -13 16 -21 21 -21
13z"/>
<path d="M5470 6671 c0 -6 4 -13 10 -16 6 -3 7 1 4 9 -7 18 -14 21 -14 7z"/>
<path d="M5643 6665 c-3 -9 -3 -18 -1 -21 3 -3 8 4 11 16 6 23 -1 27 -10 5z"/>
<path d="M4600 6661 c0 -20 63 -141 73 -141 5 0 -1 15 -12 33 -11 18 -29 53
-40 78 -11 24 -21 38 -21 30z"/>
<path d="M3011 6644 c0 -11 3 -14 6 -6 3 7 2 16 -1 19 -3 4 -6 -2 -5 -13z"/>
<path d="M3222 6635 c0 -16 2 -22 5 -12 2 9 2 23 0 30 -3 6 -5 -1 -5 -18z"/>
<path d="M3555 6649 c-4 -6 -5 -12 -2 -15 2 -3 7 2 10 11 7 17 1 20 -8 4z"/>
<path d="M4757 6645 c-4 -8 -3 -16 1 -19 4 -3 9 4 9 15 2 23 -3 25 -10 4z"/>
<path d="M5366 6648 c3 -5 10 -6 15 -3 13 9 11 12 -6 12 -8 0 -12 -4 -9 -9z"/>
<path d="M5661 6653 c-1 -6 -4 -20 -7 -30 -5 -17 -5 -17 6 0 6 10 9 23 6 30
-3 9 -5 9 -5 0z"/>
<path d="M6037 6649 c7 -7 15 -10 18 -7 3 3 -2 9 -12 12 -14 6 -15 5 -6 -5z"/>
<path d="M4560 6640 c0 -5 5 -10 11 -10 5 0 7 5 4 10 -3 6 -8 10 -11 10 -2 0
-4 -4 -4 -10z"/>
<path d="M5885 6630 c-10 -11 -16 -22 -14 -24 2 -2 12 7 22 20 22 29 17 32 -8
4z"/>
<path d="M3611 6633 c0 -6 -4 -20 -7 -30 -5 -14 -4 -15 5 -7 7 7 11 20 8 30
-3 11 -5 14 -6 7z"/>
<path d="M5270 6620 c0 -5 5 -10 11 -10 5 0 7 5 4 10 -3 6 -8 10 -11 10 -2 0
-4 -4 -4 -10z"/>
<path d="M5970 6610 c-6 -11 -8 -20 -6 -20 3 0 10 9 16 20 6 11 8 20 6 20 -3
0 -10 -9 -16 -20z"/>
<path d="M6078 6605 c-3 -14 -2 -27 1 -30 4 -2 8 10 9 26 3 36 -4 38 -10 4z"/>
<path d="M3542 6595 c0 -16 2 -22 5 -12 2 9 2 23 0 30 -3 6 -5 -1 -5 -18z"/>
<path d="M3820 6611 c0 -6 4 -13 10 -16 6 -3 7 1 4 9 -7 18 -14 21 -14 7z"/>
<path d="M4541 6575 c12 -22 26 -44 32 -50 15 -16 -20 48 -38 70 -9 11 -7 2 6
-20z"/>
<path d="M4580 6602 c0 -7 12 -36 27 -65 15 -29 31 -61 34 -72 6 -17 7 -17 8
-3 1 10 -15 48 -34 85 -19 37 -35 62 -35 55z"/>
<path d="M4727 6585 c3 -16 6 -43 6 -59 -1 -20 2 -24 8 -15 12 19 10 39 -7 74
l-14 30 7 -30z"/>
<path d="M4840 6605 c0 -5 5 -17 10 -25 5 -8 10 -10 10 -5 0 6 -5 17 -10 25
-5 8 -10 11 -10 5z"/>
<path d="M5016 6595 c10 -8 23 -15 28 -15 6 0 1 7 -10 15 -10 8 -23 15 -28 15
-6 0 -1 -7 10 -15z"/>
<path d="M5156 6597 c3 -10 9 -15 12 -12 3 3 0 11 -7 18 -10 9 -11 8 -5 -6z"/>
<path d="M5416 6602 c-2 -4 -1 -14 3 -21 6 -9 11 -10 15 -2 4 6 2 11 -4 11 -6
0 -8 5 -5 10 3 6 4 10 1 10 -3 0 -7 -4 -10 -8z"/>
<path d="M3158 6583 c7 -3 16 -2 19 1 4 3 -2 6 -13 5 -11 0 -14 -3 -6 -6z"/>
<path d="M4200 6580 c0 -5 5 -10 11 -10 5 0 7 5 4 10 -3 6 -8 10 -11 10 -2 0
-4 -4 -4 -10z"/>
<path d="M4800 6581 c0 -6 4 -13 10 -16 6 -3 7 1 4 9 -7 18 -14 21 -14 7z"/>
<path d="M5379 6540 c9 -27 17 -44 19 -39 4 11 -17 77 -27 83 -4 3 0 -17 8
-44z"/>
<path d="M3611 6564 c0 -11 3 -14 6 -6 3 7 2 16 -1 19 -3 4 -6 -2 -5 -13z"/>
<path d="M4385 6553 c8 -18 20 -33 26 -33 6 0 6 4 -1 13 -6 6 -17 21 -26 32
-13 17 -12 15 1 -12z"/>
<path d="M4420 6576 c0 -2 8 -10 18 -17 15 -13 16 -12 3 4 -13 16 -21 21 -21
13z"/>
<path d="M5250 6578 c0 -3 7 -21 15 -39 10 -24 14 -28 14 -14 0 11 -6 29 -14
39 -8 11 -15 17 -15 14z"/>
<path d="M5126 6541 c9 -17 17 -31 19 -31 8 0 -9 40 -21 51 -10 8 -10 3 2 -20z"/>
<path d="M5436 6555 c-9 -26 -7 -32 5 -12 6 10 9 21 6 23 -2 3 -7 -2 -11 -11z"/>
<path d="M5662 6545 c0 -16 2 -22 5 -12 2 9 2 23 0 30 -3 6 -5 -1 -5 -18z"/>
<path d="M4330 6552 c0 -5 7 -15 15 -22 8 -7 15 -9 15 -6 0 4 -7 14 -15 22 -8
9 -15 11 -15 6z"/>
<path d="M4861 6555 c0 -5 6 -32 14 -60 8 -29 14 -39 14 -25 -1 24 -27 106
-28 85z"/>
<path d="M5310 6550 c0 -5 5 -10 11 -10 5 0 7 5 4 10 -3 6 -8 10 -11 10 -2 0
-4 -4 -4 -10z"/>
<path d="M5582 6530 c0 -14 2 -19 5 -12 2 6 2 18 0 25 -3 6 -5 1 -5 -13z"/>
<path d="M4781 6535 c0 -5 6 -21 14 -35 8 -14 14 -20 14 -15 0 6 -6 21 -14 35
-8 14 -14 21 -14 15z"/>
<path d="M5446 6525 c-3 -9 -6 -26 -5 -38 1 -14 4 -9 9 13 9 37 7 52 -4 25z"/>
<path d="M5503 6514 c0 -17 2 -22 7 -13 5 6 6 18 3 26 -8 19 -10 16 -10 -13z"/>
<path d="M3574 6505 c15 -14 30 -25 33 -25 4 0 -4 11 -17 25 -13 14 -28 25
-33 25 -6 0 2 -11 17 -25z"/>
<path d="M4192 6510 c0 -14 2 -19 5 -12 2 6 2 18 0 25 -3 6 -5 1 -5 -13z"/>
<path d="M5327 6524 c-4 -4 -7 -14 -7 -23 0 -11 3 -12 11 -4 6 6 10 16 7 23
-2 6 -7 8 -11 4z"/>
<path d="M5681 6514 c0 -11 3 -14 6 -6 3 7 2 16 -1 19 -3 4 -6 -2 -5 -13z"/>
<path d="M5226 6507 c3 -10 9 -15 12 -12 3 3 0 11 -7 18 -10 9 -11 8 -5 -6z"/>
<path d="M4310 6506 c0 -2 8 -10 18 -17 15 -13 16 -12 3 4 -13 16 -21 21 -21
13z"/>
<path d="M4432 6485 c12 -14 23 -25 25 -25 2 0 -4 11 -13 25 -9 14 -20 25 -25
25 -5 0 1 -11 13 -25z"/>
<path d="M5571 6484 c0 -11 3 -14 6 -6 3 7 2 16 -1 19 -3 4 -6 -2 -5 -13z"/>
<path d="M5662 6485 c0 -11 3 -29 8 -40 11 -25 11 1 0 35 -6 20 -8 21 -8 5z"/>
<path d="M4115 6479 c-4 -6 -4 -13 -1 -16 3 -3 1 -12 -6 -20 -8 -11 -7 -12 6
-7 9 3 16 17 16 30 0 26 -5 30 -15 13z"/>
<path d="M4550 6470 c6 -11 13 -20 16 -20 2 0 0 9 -6 20 -6 11 -13 20 -16 20
-2 0 0 -9 6 -20z"/>
<path d="M5516 6474 c-3 -9 -2 -23 4 -32 7 -14 9 -10 10 16 0 35 -5 41 -14 16z"/>
<path d="M3720 6475 c0 -5 5 -17 10 -25 5 -8 10 -10 10 -5 0 6 -5 17 -10 25
-5 8 -10 11 -10 5z"/>
<path d="M4496 6465 c23 -68 33 -88 33 -70 0 11 -9 36 -20 55 -11 19 -17 26
-13 15z"/>
<path d="M5457 6461 c-4 -17 -3 -21 5 -13 5 5 8 16 6 23 -3 8 -7 3 -11 -10z"/>
<path d="M5330 6455 c0 -8 2 -15 4 -15 2 0 6 7 10 15 3 8 1 15 -4 15 -6 0 -10
-7 -10 -15z"/>
<path d="M5593 6435 c0 -22 2 -30 4 -17 2 12 2 30 0 40 -3 9 -5 -1 -4 -23z"/>
<path d="M4356 6447 c3 -10 9 -15 12 -12 3 3 0 11 -7 18 -10 9 -11 8 -5 -6z"/>
<path d="M4410 6456 c0 -2 8 -10 18 -17 15 -13 16 -12 3 4 -13 16 -21 21 -21
13z"/>
<path d="M4770 6440 c0 -11 4 -20 9 -20 5 0 7 9 4 20 -3 11 -7 20 -9 20 -2 0
-4 -9 -4 -20z"/>
<path d="M3415 6440 c-3 -6 1 -7 9 -4 18 7 21 14 7 14 -6 0 -13 -4 -16 -10z"/>
<path d="M3491 6434 c0 -11 3 -14 6 -6 3 7 2 16 -1 19 -3 4 -6 -2 -5 -13z"/>
<path d="M4821 6434 c0 -11 3 -14 6 -6 3 7 2 16 -1 19 -3 4 -6 -2 -5 -13z"/>
<path d="M5250 6445 c0 -5 5 -17 10 -25 5 -8 10 -10 10 -5 0 6 -5 17 -10 25
-5 8 -10 11 -10 5z"/>
<path d="M5413 6415 c0 -22 2 -30 4 -17 2 12 2 30 0 40 -3 9 -5 -1 -4 -23z"/>
<path d="M3979 6423 c-8 -9 -9 -14 -2 -10 7 4 13 0 16 -10 3 -11 5 -8 6 10 1
32 -2 33 -20 10z"/>
<path d="M5292 6420 c0 -14 2 -19 5 -12 2 6 2 18 0 25 -3 6 -5 1 -5 -13z"/>
<path d="M5347 6433 c-4 -3 -7 -11 -7 -17 0 -6 5 -5 12 2 6 6 9 14 7 17 -3 3
-9 2 -12 -2z"/>
<path d="M3742 6415 c0 -11 3 -29 8 -40 11 -25 11 1 0 35 -6 20 -8 21 -8 5z"/>
<path d="M4598 6418 c9 -9 15 -9 24 0 9 9 7 12 -12 12 -19 0 -21 -3 -12 -12z"/>
<path d="M4940 6426 c0 -3 9 -10 20 -16 11 -6 20 -8 20 -6 0 3 -9 10 -20 16
-11 6 -20 8 -20 6z"/>
<path d="M5982 6410 c0 -14 2 -19 5 -12 2 6 2 18 0 25 -3 6 -5 1 -5 -13z"/>
<path d="M4150 6412 c0 -5 7 -9 15 -9 8 0 12 4 9 9 -3 4 -9 8 -15 8 -5 0 -9
-4 -9 -8z"/>
<path d="M5467 6413 c-4 -3 -7 -11 -7 -17 0 -6 5 -5 12 2 6 6 9 14 7 17 -3 3
-9 2 -12 -2z"/>
<path d="M5662 6400 c0 -14 2 -19 5 -12 2 6 2 18 0 25 -3 6 -5 1 -5 -13z"/>
<path d="M6019 6393 c-2 -16 -1 -46 2 -68 5 -33 6 -29 8 28 1 69 -4 88 -10 40z"/>
<path d="M3910 6401 c0 -6 4 -13 10 -16 6 -3 7 1 4 9 -7 18 -14 21 -14 7z"/>
<path d="M4454 6391 c15 -17 46 -19 46 -4 0 3 -7 2 -15 -1 -9 -3 -18 1 -21 9
-4 8 -11 15 -17 15 -5 0 -2 -9 7 -19z"/>
<path d="M4680 6401 c0 -6 4 -13 10 -16 6 -3 7 1 4 9 -7 18 -14 21 -14 7z"/>
<path d="M4781 6405 c1 -19 18 -51 18 -35 0 8 -4 22 -9 30 -5 8 -9 11 -9 5z"/>
<path d="M4832 6385 c0 -16 2 -22 5 -12 2 9 2 23 0 30 -3 6 -5 -1 -5 -18z"/>
<path d="M5645 6296 c3 -66 7 -122 10 -124 8 -9 4 172 -5 208 -6 24 -8 -4 -5
-84z"/>
<path d="M3395 6390 c-3 -5 -1 -10 4 -10 6 0 11 5 11 10 0 6 -2 10 -4 10 -3 0
-8 -4 -11 -10z"/>
<path d="M4215 6390 c3 -5 8 -10 11 -10 2 0 4 5 4 10 0 6 -5 10 -11 10 -5 0
-7 -4 -4 -10z"/>
<path d="M4738 6388 c7 -7 12 -21 12 -32 0 -10 3 -17 6 -13 10 10 -5 57 -18
57 -9 0 -9 -3 0 -12z"/>
<path d="M5521 6388 c0 -7 4 -22 9 -33 7 -17 9 -15 9 13 1 17 -3 32 -9 32 -5
0 -10 -6 -9 -12z"/>
<path d="M3447 6372 c-10 -10 -17 -25 -17 -33 0 -8 6 -3 13 11 8 15 21 25 35
24 11 0 19 3 16 8 -9 14 -30 9 -47 -10z"/>
<path d="M5583 6345 c0 -27 2 -38 4 -22 2 15 2 37 0 50 -2 12 -4 0 -4 -28z"/>
<path d="M5950 6381 c0 -6 4 -13 10 -16 6 -3 7 1 4 9 -7 18 -14 21 -14 7z"/>
<path d="M6063 6355 c0 -22 2 -30 4 -17 2 12 2 30 0 40 -3 9 -5 -1 -4 -23z"/>
<path d="M3877 6373 c-2 -5 0 -21 4 -38 7 -29 7 -29 8 8 1 35 -3 46 -12 30z"/>
<path d="M5471 6364 c0 -11 3 -14 6 -6 3 7 2 16 -1 19 -3 4 -6 -2 -5 -13z"/>
<path d="M5852 6338 c1 -35 2 -39 8 -18 11 35 12 60 1 60 -5 0 -9 -19 -9 -42z"/>
<path d="M3079 6338 c-3 -22 -1 -34 4 -29 5 5 7 21 5 37 -3 27 -4 26 -9 -8z"/>
<path d="M3510 6360 c0 -5 5 -10 11 -10 5 0 7 5 4 10 -3 6 -8 10 -11 10 -2 0
-4 -4 -4 -10z"/>
<path d="M4580 6366 c0 -2 8 -10 18 -17 15 -13 16 -12 3 4 -13 16 -21 21 -21
13z"/>
<path d="M4698 6353 c5 -10 17 -35 27 -56 10 -21 19 -36 21 -34 5 5 -44 107
-51 107 -3 0 -2 -8 3 -17z"/>
<path d="M5021 6367 c2 -1 13 -9 24 -17 19 -14 19 -14 6 3 -7 9 -18 17 -24 17
-6 0 -8 -1 -6 -3z"/>
<path d="M6102 6340 c0 -19 2 -27 5 -17 2 9 2 25 0 35 -3 9 -5 1 -5 -18z"/>
<path d="M4018 6353 c7 -3 16 -2 19 1 4 3 -2 6 -13 5 -11 0 -14 -3 -6 -6z"/>
<path d="M4970 6356 c0 -2 8 -10 18 -17 15 -13 16 -12 3 4 -13 16 -21 21 -21
13z"/>
<path d="M5301 6344 c0 -11 3 -14 6 -6 3 7 2 16 -1 19 -3 4 -6 -2 -5 -13z"/>
<path d="M5422 6330 c0 -19 2 -27 5 -17 2 9 2 25 0 35 -3 9 -5 1 -5 -18z"/>
<path d="M5897 6340 c-4 -14 -6 -38 -6 -55 l1 -30 9 34 c6 18 9 43 7 55 -3 20
-4 19 -11 -4z"/>
<path d="M4296 6337 c3 -10 9 -15 12 -12 3 3 0 11 -7 18 -10 9 -11 8 -5 -6z"/>
<path d="M4351 6334 c0 -11 3 -14 6 -6 3 7 2 16 -1 19 -3 4 -6 -2 -5 -13z"/>
<path d="M4550 6340 c0 -5 5 -10 11 -10 5 0 7 -5 3 -12 -4 -7 -3 -8 5 -4 9 6
9 11 0 22 -14 17 -19 18 -19 4z"/>
<path d="M4803 6285 c0 -38 2 -53 4 -32 2 20 2 52 0 70 -2 17 -4 1 -4 -38z"/>
<path d="M4841 6334 c0 -11 3 -14 6 -6 3 7 2 16 -1 19 -3 4 -6 -2 -5 -13z"/>
<path d="M4882 6330 c0 -14 2 -19 5 -12 2 6 2 18 0 25 -3 6 -5 1 -5 -13z"/>
<path d="M5940 6275 c0 -43 3 -75 7 -72 8 9 7 136 -1 144 -3 4 -6 -29 -6 -72z"/>
<path d="M3690 6320 c0 -11 4 -20 9 -20 5 0 7 9 4 20 -3 11 -7 20 -9 20 -2 0
-4 -9 -4 -20z"/>
<path d="M3852 6305 c0 -16 2 -22 5 -12 2 9 2 23 0 30 -3 6 -5 -1 -5 -18z"/>
<path d="M5010 6326 c0 -2 8 -10 18 -17 15 -13 16 -12 3 4 -13 16 -21 21 -21
13z"/>
<path d="M3531 6294 c0 -11 3 -14 6 -6 3 7 2 16 -1 19 -3 4 -6 -2 -5 -13z"/>
<path d="M4325 6300 c3 -5 8 -10 11 -10 2 0 4 5 4 10 0 6 -5 10 -11 10 -5 0
-7 -4 -4 -10z"/>
<path d="M4393 6275 c0 -22 2 -30 4 -17 2 12 2 30 0 40 -3 9 -5 -1 -4 -23z"/>
<path d="M5597 6296 c-4 -10 -5 -21 -2 -24 9 -9 17 6 13 25 -3 17 -4 17 -11
-1z"/>
<path d="M5130 6290 c0 -5 5 -10 11 -10 5 0 7 5 4 10 -3 6 -8 10 -11 10 -2 0
-4 -4 -4 -10z"/>
<path d="M3467 6279 c7 -7 15 -10 18 -7 3 3 -2 9 -12 12 -14 6 -15 5 -6 -5z"/>
<path d="M4990 6281 c0 -5 7 -15 17 -22 15 -13 15 -12 4 9 -12 23 -21 28 -21
13z"/>
<path d="M5075 6270 c10 -11 20 -20 23 -20 3 0 -3 9 -13 20 -10 11 -20 20 -23
20 -3 0 3 -9 13 -20z"/>
<path d="M5851 6273 c0 -10 4 -27 9 -38 7 -17 9 -15 9 12 1 17 -3 35 -9 38 -5
3 -10 -2 -9 -12z"/>
<path d="M6085 6279 c-4 -6 -5 -12 -2 -15 2 -3 7 2 10 11 7 17 1 20 -8 4z"/>
<path d="M5160 6270 c0 -5 9 -14 20 -20 11 -6 20 -9 20 -8 0 2 -9 11 -20 21
-11 9 -20 13 -20 7z"/>
<path d="M3598 6253 c7 -3 16 -2 19 1 4 3 -2 6 -13 5 -11 0 -14 -3 -6 -6z"/>
<path d="M3820 6256 c0 -2 7 -7 16 -10 8 -3 12 -2 9 4 -6 10 -25 14 -25 6z"/>
<path d="M4153 6253 c9 -2 23 -2 30 0 6 3 -1 5 -18 5 -16 0 -22 -2 -12 -5z"/>
<path d="M4600 6256 c0 -2 7 -7 16 -10 8 -3 12 -2 9 4 -6 10 -25 14 -25 6z"/>
<path d="M4696 6251 c-7 -11 12 -66 20 -58 3 3 1 14 -4 24 -5 10 -7 24 -5 31
5 14 -3 16 -11 3z"/>
<path d="M3650 6246 c0 -2 8 -10 18 -17 15 -13 16 -12 3 4 -13 16 -21 21 -21
13z"/>
<path d="M4300 6229 c-17 -13 -18 -17 -5 -10 33 17 51 31 40 31 -5 0 -21 -10
-35 -21z"/>
<path d="M4950 6215 c19 -19 36 -35 39 -35 3 0 -10 16 -29 35 -19 19 -36 35
-39 35 -3 0 10 -16 29 -35z"/>
<path d="M5042 6236 c7 -8 15 -12 17 -11 5 6 -10 25 -20 25 -5 0 -4 -6 3 -14z"/>
<path d="M5110 6246 c0 -2 8 -10 18 -17 15 -13 16 -12 3 4 -13 16 -21 21 -21
13z"/>
<path d="M5511 6234 c0 -11 3 -14 6 -6 3 7 2 16 -1 19 -3 4 -6 -2 -5 -13z"/>
<path d="M5992 6222 c-1 -24 0 -25 9 -9 7 11 7 23 2 28 -5 5 -9 -3 -11 -19z"/>
<path d="M4500 6236 c0 -2 8 -10 18 -17 15 -13 16 -12 3 4 -13 16 -21 21 -21
13z"/>
<path d="M5412 6220 c0 -14 2 -19 5 -12 2 6 2 18 0 25 -3 6 -5 1 -5 -13z"/>
<path d="M4638 6214 c10 -20 42 -52 42 -42 0 3 -12 18 -26 34 -17 19 -22 22
-16 8z"/>
<path d="M6036 6213 c-6 -14 -5 -15 5 -6 7 7 10 15 7 18 -3 3 -9 -2 -12 -12z"/>
<path d="M4400 6215 c0 -5 5 -17 10 -25 5 -8 10 -10 10 -5 0 6 -5 17 -10 25
-5 8 -10 11 -10 5z"/>
<path d="M4462 6195 c0 -16 2 -22 5 -12 2 9 2 23 0 30 -3 6 -5 -1 -5 -18z"/>
<path d="M5019 6207 c16 -20 91 -81 91 -74 0 2 -24 24 -52 48 -29 24 -47 36
-39 26z"/>
<path d="M5075 6210 c3 -5 8 -10 11 -10 2 0 4 5 4 10 0 6 -5 10 -11 10 -5 0
-7 -4 -4 -10z"/>
<path d="M5150 6216 c0 -2 8 -10 18 -17 15 -13 16 -12 3 4 -13 16 -21 21 -21
13z"/>
<path d="M5246 6207 c3 -10 9 -15 12 -12 3 3 0 11 -7 18 -10 9 -11 8 -5 -6z"/>
<path d="M3680 6201 c0 -6 4 -13 10 -16 6 -3 7 1 4 9 -7 18 -14 21 -14 7z"/>
<path d="M5912 6190 c0 -14 2 -19 5 -12 2 6 2 18 0 25 -3 6 -5 1 -5 -13z"/>
<path d="M4830 6176 c0 -14 4 -27 8 -30 5 -3 6 8 4 25 -5 35 -12 38 -12 5z"/>
<path d="M4552 6174 c10 -10 20 -16 22 -13 3 3 -5 11 -17 18 -21 13 -21 12 -5
-5z"/>
<path d="M5190 6186 c0 -2 8 -10 18 -17 15 -13 16 -12 3 4 -13 16 -21 21 -21
13z"/>
<path d="M5422 6170 c0 -14 2 -19 5 -12 2 6 2 18 0 25 -3 6 -5 1 -5 -13z"/>
<path d="M5613 6120 c0 -41 2 -58 4 -37 2 20 2 54 0 75 -2 20 -4 3 -4 -38z"/>
<path d="M3492 6150 c0 -14 2 -19 5 -12 2 6 2 18 0 25 -3 6 -5 1 -5 -13z"/>
<path d="M3940 6154 c0 -16 -2 -17 -10 -4 -6 9 -10 10 -10 3 0 -19 20 -26 26
-8 4 9 4 19 0 22 -3 4 -6 -2 -6 -13z"/>
<path d="M3970 6155 c0 -8 2 -15 4 -15 2 0 6 7 10 15 3 8 1 15 -4 15 -6 0 -10
-7 -10 -15z"/>
<path d="M4278 6163 c6 -2 18 -2 25 0 6 3 1 5 -13 5 -14 0 -19 -2 -12 -5z"/>
<path d="M4740 6160 c0 -8 9 -28 20 -45 25 -38 25 -30 0 21 -10 21 -19 32 -20
24z"/>
<path d="M5146 6155 c4 -8 11 -15 16 -15 6 0 5 6 -2 15 -7 8 -14 15 -16 15 -2
0 -1 -7 2 -15z"/>
<path d="M5300 6166 c0 -2 8 -10 18 -17 15 -13 16 -12 3 4 -13 16 -21 21 -21
13z"/>
<path d="M3660 6141 c0 -25 6 -27 13 -6 4 8 2 17 -3 20 -6 4 -10 -3 -10 -14z"/>
<path d="M4975 6092 c39 -41 84 -83 100 -94 17 -12 26 -17 20 -12 -5 6 -50 48
-100 94 l-90 85 70 -73z"/>
<path d="M3135 6140 c3 -5 8 -10 11 -10 2 0 4 5 4 10 0 6 -5 10 -11 10 -5 0
-7 -4 -4 -10z"/>
<path d="M4801 6134 c0 -11 3 -14 6 -6 3 7 2 16 -1 19 -3 4 -6 -2 -5 -13z"/>
<path d="M4970 6147 c0 -2 15 -16 33 -33 l32 -29 -29 33 c-28 30 -36 37 -36
29z"/>
<path d="M5230 6146 c0 -2 7 -7 16 -10 8 -3 12 -2 9 4 -6 10 -25 14 -25 6z"/>
<path d="M5935 6133 c3 -12 1 -24 -5 -28 -5 -3 -9 -21 -9 -38 l2 -32 4 30 c3
17 9 35 15 42 6 8 6 18 -2 30 -10 16 -10 16 -5 -4z"/>
<path d="M3065 6130 c3 -5 8 -10 11 -10 2 0 4 5 4 10 0 6 -5 10 -11 10 -5 0
-7 -4 -4 -10z"/>
<path d="M3721 6135 c-1 -6 3 -15 8 -20 5 -6 11 -19 14 -30 3 -13 5 -8 6 13 0
18 -3 31 -8 28 -5 -4 -12 0 -14 6 -3 7 -6 8 -6 3z"/>
<path d="M4025 6129 c-4 -6 -4 -13 -1 -16 3 -4 6 -1 6 6 0 8 6 11 16 7 8 -3
12 -2 9 4 -8 13 -22 13 -30 -1z"/>
<path d="M5520 6121 c0 -12 5 -21 10 -21 6 0 10 6 10 14 0 8 -4 18 -10 21 -5
3 -10 -3 -10 -14z"/>
<path d="M5070 6106 c25 -28 100 -91 100 -84 0 2 -28 28 -62 58 -35 29 -52 41
-38 26z"/>
<path d="M4682 6100 c7 -11 17 -20 22 -20 5 0 1 9 -9 20 -10 11 -20 20 -22 20
-2 0 2 -9 9 -20z"/>
<path d="M5150 6090 c19 -17 44 -35 55 -41 11 -6 4 3 -15 20 -19 17 -44 36
-55 42 -11 6 -4 -4 15 -21z"/>
<path d="M5300 6095 c19 -14 36 -25 39 -25 10 0 -53 49 -63 50 -6 0 5 -11 24
-25z"/>
<path d="M3588 6103 c7 -3 16 -2 19 1 4 3 -2 6 -13 5 -11 0 -14 -3 -6 -6z"/>
<path d="M4600 6104 c1 -10 50 -73 50 -63 0 3 -11 20 -25 39 -14 19 -25 30
-25 24z"/>
<path d="M3920 6085 c-19 -22 -8 -25 13 -3 9 10 13 18 8 18 -5 0 -14 -7 -21
-15z"/>
<path d="M4862 6080 c0 -14 2 -19 5 -12 2 6 2 18 0 25 -3 6 -5 1 -5 -13z"/>
<path d="M5641 6084 c0 -11 3 -14 6 -6 3 7 2 16 -1 19 -3 4 -6 -2 -5 -13z"/>
<path d="M3128 6060 c-3 -17 -1 -33 4 -36 4 -3 8 11 8 30 0 44 -6 47 -12 6z"/>
<path d="M6061 6064 c0 -11 3 -14 6 -6 3 7 2 16 -1 19 -3 4 -6 -2 -5 -13z"/>
<path d="M3191 6054 c0 -11 3 -14 6 -6 3 7 2 16 -1 19 -3 4 -6 -2 -5 -13z"/>
<path d="M4970 6035 c19 -19 36 -35 39 -35 3 0 -10 16 -29 35 -19 19 -36 35
-39 35 -3 0 10 -16 29 -35z"/>
<path d="M3996 6045 c4 -8 8 -15 10 -15 2 0 4 7 4 15 0 8 -4 15 -10 15 -5 0
-7 -7 -4 -15z"/>
<path d="M5276 6051 c-4 -5 -2 -12 3 -15 5 -4 12 -2 15 3 4 5 2 12 -3 15 -5 4
-12 2 -15 -3z"/>
<path d="M5448 6038 c-10 -10 -14 -18 -9 -18 10 0 36 29 30 34 -2 1 -12 -6
-21 -16z"/>
<path d="M4792 6020 c0 -19 2 -27 5 -17 2 9 2 25 0 35 -3 9 -5 1 -5 -18z"/>
<path d="M4725 6030 c3 -5 8 -10 11 -10 2 0 4 5 4 10 0 6 -5 10 -11 10 -5 0
-7 -4 -4 -10z"/>
<path d="M3192 6010 c0 -14 2 -19 5 -12 2 6 2 18 0 25 -3 6 -5 1 -5 -13z"/>
<path d="M5350 6009 c0 -5 9 -9 20 -9 11 0 20 2 20 4 0 2 -9 6 -20 9 -11 3
-20 1 -20 -4z"/>
<path d="M3976 5998 c3 -5 10 -6 15 -3 13 9 11 12 -6 12 -8 0 -12 -4 -9 -9z"/>
<path d="M5927 5997 c-3 -8 -1 -20 4 -28 6 -10 9 -7 9 14 0 29 -5 35 -13 14z"/>
<path d="M3766 5985 c-9 -26 -7 -32 5 -12 6 10 9 21 6 23 -2 3 -7 -2 -11 -11z"/>
<path d="M3925 5980 c3 -5 8 -10 11 -10 2 0 4 5 4 10 0 6 -5 10 -11 10 -5 0
-7 -4 -4 -10z"/>
<path d="M3598 5973 c7 -3 16 -2 19 1 4 3 -2 6 -13 5 -11 0 -14 -3 -6 -6z"/>
<path d="M4318 5973 c7 -3 16 -2 19 1 4 3 -2 6 -13 5 -11 0 -14 -3 -6 -6z"/>
<path d="M4577 5973 c-4 -3 -7 -11 -7 -17 0 -7 3 -7 8 0 4 7 16 14 27 17 19 5
19 5 -1 6 -11 0 -24 -2 -27 -6z"/>
<path d="M4703 5973 c13 -3 17 -11 14 -25 -5 -19 -5 -19 14 -2 23 20 18 27
-19 30 -15 1 -19 0 -9 -3z"/>
<path d="M4880 5976 c0 -3 9 -10 20 -16 11 -6 20 -8 20 -6 0 3 -9 10 -20 16
-11 6 -20 8 -20 6z"/>
<path d="M5872 5960 c-7 -11 -8 -20 -3 -20 9 0 24 30 18 36 -1 2 -8 -6 -15
-16z"/>
<path d="M3741 5954 c0 -11 3 -14 6 -6 3 7 2 16 -1 19 -3 4 -6 -2 -5 -13z"/>
<path d="M4522 5935 c0 -16 2 -22 5 -12 2 9 2 23 0 30 -3 6 -5 -1 -5 -18z"/>
<path d="M5762 5947 c-8 -9 -8 -17 0 -27 8 -13 9 -12 5 2 -3 9 -1 19 6 21 7 2
9 7 6 11 -3 4 -11 1 -17 -7z"/>
<path d="M5586 5937 c3 -10 9 -15 12 -12 3 3 0 11 -7 18 -10 9 -11 8 -5 -6z"/>
<path d="M4571 5924 c0 -11 3 -14 6 -6 3 7 2 16 -1 19 -3 4 -6 -2 -5 -13z"/>
<path d="M4981 5937 c2 -1 13 -9 24 -17 19 -14 19 -14 6 3 -7 9 -18 17 -24 17
-6 0 -8 -1 -6 -3z"/>
<path d="M4131 5914 c0 -11 3 -14 6 -6 3 7 2 16 -1 19 -3 4 -6 -2 -5 -13z"/>
<path d="M4326 5908 c3 -5 10 -6 15 -3 13 9 11 12 -6 12 -8 0 -12 -4 -9 -9z"/>
<path d="M5801 5911 c-8 -5 -9 -11 -3 -15 5 -3 12 1 16 9 6 17 6 18 -13 6z"/>
<path d="M6013 5908 c-12 -15 -24 -48 -18 -48 2 0 10 14 19 30 15 32 15 38 -1
18z"/>
<path d="M3241 5894 c0 -11 3 -14 6 -6 3 7 2 16 -1 19 -3 4 -6 -2 -5 -13z"/>
<path d="M5886 5884 c-4 -14 -5 -28 -3 -31 3 -2 8 8 11 23 4 14 5 28 3 31 -3
2 -8 -8 -11 -23z"/>
<path d="M5961 5896 c-7 -8 -8 -17 -3 -20 6 -3 13 1 16 10 9 23 2 28 -13 10z"/>
<path d="M3327 5871 c-2 -10 -1 -25 4 -32 6 -10 9 -4 9 19 0 36 -5 42 -13 13z"/>
<path d="M5782 5885 c4 -4 4 -13 -1 -19 -10 -14 -22 -46 -16 -46 2 0 11 13 20
29 12 23 12 31 2 37 -6 4 -9 4 -5 -1z"/>
<path d="M5040 5860 c-9 -6 -10 -10 -3 -10 6 0 15 5 18 10 8 12 4 12 -15 0z"/>
<path d="M5142 5840 c0 -19 2 -27 5 -17 2 9 2 25 0 35 -3 9 -5 1 -5 -18z"/>
<path d="M5249 5857 c5 -5 19 -7 32 -5 20 3 19 5 -9 9 -20 3 -29 2 -23 -4z"/>
<path d="M5341 5846 c-13 -14 -21 -32 -18 -43 4 -15 5 -14 6 4 0 12 13 31 27
42 15 12 22 21 17 21 -5 0 -20 -11 -32 -24z"/>
<path d="M5943 5863 c4 -3 1 -13 -6 -22 -11 -14 -10 -14 5 -2 16 12 16 31 1
31 -4 0 -3 -3 0 -7z"/>
<path d="M3068 5853 c7 -3 16 -2 19 1 4 3 -2 6 -13 5 -11 0 -14 -3 -6 -6z"/>
<path d="M3940 5854 c37 -8 88 -9 84 -2 -3 4 -26 7 -52 7 -26 -1 -40 -3 -32
-5z"/>
<path d="M4571 5857 c2 -1 13 -9 24 -17 19 -14 19 -14 6 3 -7 9 -18 17 -24 17
-6 0 -8 -1 -6 -3z"/>
<path d="M5985 5840 c3 -5 8 -10 11 -10 2 0 4 5 4 10 0 6 -5 10 -11 10 -5 0
-7 -4 -4 -10z"/>
<path d="M4091 5824 c0 -11 3 -14 6 -6 3 7 2 16 -1 19 -3 4 -6 -2 -5 -13z"/>
<path d="M5441 5817 c-1 -19 -5 -26 -13 -21 -7 5 -8 3 -3 -5 11 -19 27 3 22
30 -4 22 -4 21 -6 -4z"/>
<path d="M4276 5815 c-11 -8 -15 -15 -9 -15 6 0 16 7 23 15 16 19 11 19 -14 0z"/>
<path d="M4736 5818 c3 -5 10 -6 15 -3 13 9 11 12 -6 12 -8 0 -12 -4 -9 -9z"/>
<path d="M5082 5810 c0 -14 2 -19 5 -12 2 6 2 18 0 25 -3 6 -5 1 -5 -13z"/>
<path d="M3266 5803 c-6 -14 -5 -15 5 -6 7 7 10 15 7 18 -3 3 -9 -2 -12 -12z"/>
<path d="M4551 5804 c0 -11 3 -14 6 -6 3 7 2 16 -1 19 -3 4 -6 -2 -5 -13z"/>
<path d="M5159 5803 c-13 -16 -12 -17 4 -4 9 7 17 15 17 17 0 8 -8 3 -21 -13z"/>
<path d="M4976 5802 c7 -4 14 -16 17 -27 4 -15 5 -14 6 8 1 20 -4 27 -16 27
-12 0 -14 -3 -7 -8z"/>
<path d="M5700 5799 c0 -5 5 -7 10 -4 6 3 10 8 10 11 0 2 -4 4 -10 4 -5 0 -10
-5 -10 -11z"/>
<path d="M5901 5758 c-18 -28 -25 -45 -16 -38 15 13 60 90 52 90 -2 0 -19 -23
-36 -52z"/>
<path d="M5965 5801 c-3 -5 -2 -12 3 -15 5 -3 9 1 9 9 0 17 -3 19 -12 6z"/>
<path d="M4024 5781 c11 -4 23 -16 27 -27 7 -18 8 -18 8 2 1 21 -17 35 -42 33
-7 0 -3 -4 7 -8z"/>
<path d="M5126 5782 c-3 -5 1 -9 9 -9 8 0 12 4 9 9 -3 4 -7 8 -9 8 -2 0 -6 -4
-9 -8z"/>
<path d="M5741 5774 c0 -11 3 -14 6 -6 3 7 2 16 -1 19 -3 4 -6 -2 -5 -13z"/>
<path d="M5191 5767 c-1 -11 -6 -15 -13 -11 -7 5 -8 3 -3 -5 10 -16 29 2 22
21 -4 8 -6 7 -6 -5z"/>
<path d="M5385 5770 c3 -5 8 -10 11 -10 2 0 4 5 4 10 0 6 -5 10 -11 10 -5 0
-7 -4 -4 -10z"/>
<path d="M5701 5764 c0 -11 3 -14 6 -6 3 7 2 16 -1 19 -3 4 -6 -2 -5 -13z"/>
<path d="M5780 5770 c0 -5 5 -10 11 -10 5 0 7 5 4 10 -3 6 -8 10 -11 10 -2 0
-4 -4 -4 -10z"/>
<path d="M3980 5755 c0 -8 2 -15 4 -15 2 0 6 7 10 15 3 8 1 15 -4 15 -6 0 -10
-7 -10 -15z"/>
<path d="M4491 5754 c0 -11 3 -14 6 -6 3 7 2 16 -1 19 -3 4 -6 -2 -5 -13z"/>
<path d="M3165 5749 c-11 -16 -1 -19 13 -3 7 8 8 14 3 14 -5 0 -13 -5 -16 -11z"/>
<path d="M4547 5740 c4 -16 3 -21 -5 -16 -8 5 -10 1 -5 -10 6 -16 8 -15 16 4
7 16 7 26 -1 34 -8 8 -9 5 -5 -12z"/>
<path d="M5245 5751 c-3 -5 0 -13 6 -17 7 -4 9 -3 5 4 -3 5 0 13 6 15 9 4 10
6 1 6 -6 1 -14 -3 -18 -8z"/>
<path d="M4156 5738 c3 -5 10 -6 15 -3 13 9 11 12 -6 12 -8 0 -12 -4 -9 -9z"/>
<path d="M4308 5743 c7 -3 16 -2 19 1 4 3 -2 6 -13 5 -11 0 -14 -3 -6 -6z"/>
<path d="M4696 5742 c-3 -5 1 -9 9 -9 8 0 12 4 9 9 -3 4 -7 8 -9 8 -2 0 -6 -4
-9 -8z"/>
<path d="M4790 5738 c0 -4 4 -8 9 -8 6 0 12 4 15 8 3 5 -1 9 -9 9 -8 0 -15 -4
-15 -9z"/>
<path d="M5770 5739 c0 -5 5 -7 10 -4 6 3 10 8 10 11 0 2 -4 4 -10 4 -5 0 -10
-5 -10 -11z"/>
<path d="M4360 5730 c-21 -7 -21 -8 -5 -9 11 0 27 4 35 9 18 11 5 11 -30 0z"/>
<path d="M4040 5720 c-9 -6 -10 -10 -3 -10 6 0 15 5 18 10 8 12 4 12 -15 0z"/>
<path d="M5810 5710 c-6 -11 -8 -20 -6 -20 3 0 10 9 16 20 6 11 8 20 6 20 -3
0 -10 -9 -16 -20z"/>
<path d="M3864 5706 c11 -9 24 -16 30 -16 12 0 7 5 -24 19 -24 11 -24 11 -6
-3z"/>
<path d="M5025 5710 c28 -12 37 -12 30 0 -3 6 -16 10 -28 9 -21 0 -21 -1 -2
-9z"/>
<path d="M3351 5694 c0 -11 3 -14 6 -6 3 7 2 16 -1 19 -3 4 -6 -2 -5 -13z"/>
<path d="M3947 5669 c7 -7 15 -10 18 -7 3 3 -2 9 -12 12 -14 6 -15 5 -6 -5z"/>
<path d="M4520 5668 c0 -7 5 -20 10 -28 8 -12 10 -11 10 7 0 12 -4 25 -10 28
-5 3 -10 0 -10 -7z"/>
<path d="M5751 5664 c0 -11 3 -14 6 -6 3 7 2 16 -1 19 -3 4 -6 -2 -5 -13z"/>
<path d="M3188 5663 c7 -3 16 -2 19 1 4 3 -2 6 -13 5 -11 0 -14 -3 -6 -6z"/>
<path d="M4010 5660 c0 -5 5 -10 10 -10 6 0 10 5 10 10 0 6 -4 10 -10 10 -5 0
-10 -4 -10 -10z"/>
<path d="M4768 5663 c7 -3 16 -2 19 1 4 3 -2 6 -13 5 -11 0 -14 -3 -6 -6z"/>
<path d="M4958 5663 c6 -2 18 -2 25 0 6 3 1 5 -13 5 -14 0 -19 -2 -12 -5z"/>
<path d="M3342 5640 c0 -14 2 -19 5 -12 2 6 2 18 0 25 -3 6 -5 1 -5 -13z"/>
<path d="M3850 5639 c0 -5 5 -7 10 -4 6 3 10 8 10 11 0 2 -4 4 -10 4 -5 0 -10
-5 -10 -11z"/>
<path d="M4100 5631 c0 -10 19 -25 25 -20 1 2 -3 10 -11 17 -8 7 -14 8 -14 3z"/>
<path d="M5098 5633 c7 -3 16 -2 19 1 4 3 -2 6 -13 5 -11 0 -14 -3 -6 -6z"/>
<path d="M5218 5633 c7 -3 16 -2 19 1 4 3 -2 6 -13 5 -11 0 -14 -3 -6 -6z"/>
<path d="M5660 5620 c0 -5 5 -10 11 -10 5 0 7 5 4 10 -3 6 -8 10 -11 10 -2 0
-4 -4 -4 -10z"/>
<path d="M3775 5610 c-3 -6 1 -7 9 -4 18 7 21 14 7 14 -6 0 -13 -4 -16 -10z"/>
<path d="M4227 5613 c-10 -9 -9 -33 1 -33 4 0 8 9 8 20 0 23 0 22 -9 13z"/>
<path d="M4511 5583 c-1 -23 3 -44 7 -47 4 -2 6 12 4 32 -5 56 -10 62 -11 15z"/>
<path d="M3816 5597 c3 -10 9 -15 12 -12 3 3 0 11 -7 18 -10 9 -11 8 -5 -6z"/>
<path d="M4340 5599 c0 -5 5 -7 10 -4 6 3 10 8 10 11 0 2 -4 4 -10 4 -5 0 -10
-5 -10 -11z"/>
<path d="M5051 5594 c0 -11 3 -14 6 -6 3 7 2 16 -1 19 -3 4 -6 -2 -5 -13z"/>
<path d="M4826 5587 c3 -10 9 -15 12 -12 3 3 0 11 -7 18 -10 9 -11 8 -5 -6z"/>
<path d="M3752 5570 c0 -14 2 -19 5 -12 2 6 2 18 0 25 -3 6 -5 1 -5 -13z"/>
<path d="M4448 5583 c7 -3 16 -2 19 1 4 3 -2 6 -13 5 -11 0 -14 -3 -6 -6z"/>
<path d="M5526 5573 c-6 -14 -5 -15 5 -6 7 7 10 15 7 18 -3 3 -9 -2 -12 -12z"/>
<path d="M5818 5583 c7 -3 16 -2 19 1 4 3 -2 6 -13 5 -11 0 -14 -3 -6 -6z"/>
<path d="M3943 5553 c9 -2 23 -2 30 0 6 3 -1 5 -18 5 -16 0 -22 -2 -12 -5z"/>
<path d="M5148 5553 c6 -2 18 -2 25 0 6 3 1 5 -13 5 -14 0 -19 -2 -12 -5z"/>
<path d="M5489 5540 c-29 -31 -32 -45 -3 -18 15 15 26 29 23 31 -2 2 -11 -4
-20 -13z"/>
<path d="M5103 5535 c-3 -9 -3 -19 1 -22 3 -4 6 1 6 10 0 8 6 18 13 20 9 4 9
6 -1 6 -7 1 -15 -6 -19 -14z"/>
<path d="M5634 5535 c-4 -8 -11 -12 -17 -8 -6 3 -7 1 -3 -5 10 -16 14 -15 26
8 6 11 8 20 5 20 -3 0 -8 -7 -11 -15z"/>
<path d="M4655 5530 c-3 -5 -1 -10 4 -10 6 0 11 5 11 10 0 6 -2 10 -4 10 -3 0
-8 -4 -11 -10z"/>
<path d="M4806 5532 c-3 -5 1 -9 9 -9 8 0 12 4 9 9 -3 4 -7 8 -9 8 -2 0 -6 -4
-9 -8z"/>
<path d="M3410 5520 c0 -5 5 -10 11 -10 5 0 7 5 4 10 -3 6 -8 10 -11 10 -2 0
-4 -4 -4 -10z"/>
<path d="M4467 5510 c3 -11 9 -17 15 -14 5 3 4 12 -3 20 -16 19 -18 18 -12 -6z"/>
<path d="M5028 5523 c6 -2 18 -2 25 0 6 3 1 5 -13 5 -14 0 -19 -2 -12 -5z"/>
<path d="M5657 5507 c-12 -19 -12 -24 -2 -24 7 0 15 11 18 24 2 13 3 23 2 23
-2 0 -10 -10 -18 -23z"/>
<path d="M3348 5503 c7 -3 16 -2 19 1 4 3 -2 6 -13 5 -11 0 -14 -3 -6 -6z"/>
<path d="M4396 5498 c3 -5 10 -6 15 -3 13 9 11 12 -6 12 -8 0 -12 -4 -9 -9z"/>
<path d="M3471 5484 c0 -11 3 -14 6 -6 3 7 2 16 -1 19 -3 4 -6 -2 -5 -13z"/>
<path d="M4076 5487 c3 -10 9 -15 12 -12 3 3 0 11 -7 18 -10 9 -11 8 -5 -6z"/>
<path d="M4815 5479 c-4 -6 -5 -12 -2 -15 2 -3 7 2 10 11 7 17 1 20 -8 4z"/>
<path d="M5013 5473 c9 -2 23 -2 30 0 6 3 -1 5 -18 5 -16 0 -22 -2 -12 -5z"/>
<path d="M4568 5455 c5 -11 12 -27 15 -35 5 -13 6 -13 6 1 1 8 -6 24 -15 35
-15 19 -15 19 -6 -1z"/>
<path d="M4832 5445 c0 -16 2 -22 5 -12 2 9 2 23 0 30 -3 6 -5 -1 -5 -18z"/>
<path d="M5465 5459 c-4 -6 -5 -12 -2 -15 2 -3 7 2 10 11 7 17 1 20 -8 4z"/>
<path d="M5390 5444 c-10 -12 -11 -17 -1 -27 10 -9 11 -8 6 5 -4 11 -1 17 12
20 12 2 14 6 7 11 -7 4 -17 0 -24 -9z"/>
<path d="M3611 5434 c0 -11 3 -14 6 -6 3 7 2 16 -1 19 -3 4 -6 -2 -5 -13z"/>
<path d="M4505 5439 c-4 -6 -5 -12 -2 -15 2 -3 7 2 10 11 7 17 1 20 -8 4z"/>
<path d="M3940 5420 c-9 -6 -10 -10 -3 -10 6 0 15 5 18 10 8 12 4 12 -15 0z"/>
<path d="M4516 5413 c-6 -14 -5 -15 5 -6 7 7 10 15 7 18 -3 3 -9 -2 -12 -12z"/>
<path d="M5429 5413 c-13 -16 -12 -17 4 -4 16 13 21 21 13 21 -2 0 -10 -8 -17
-17z"/>
<path d="M5040 5416 c0 -2 11 -6 25 -8 13 -3 22 -1 19 3 -5 9 -44 13 -44 5z"/>
<path d="M4078 5403 c7 -3 16 -2 19 1 4 3 -2 6 -13 5 -11 0 -14 -3 -6 -6z"/>
<path d="M4118 5393 c6 -2 18 -2 25 0 6 3 1 5 -13 5 -14 0 -19 -2 -12 -5z"/>
<path d="M5000 5382 c0 -11 8 -26 18 -33 14 -11 15 -11 5 0 -6 7 -9 19 -7 26
3 7 1 16 -5 20 -6 3 -11 -2 -11 -13z"/>
<path d="M5681 5375 c-30 -32 -20 -32 15 0 15 14 23 25 18 25 -5 0 -20 -12
-33 -25z"/>
<path d="M4456 5373 c-6 -14 -5 -15 5 -6 7 7 10 15 7 18 -3 3 -9 -2 -12 -12z"/>
<path d="M5080 5381 c0 -6 5 -13 10 -16 6 -3 10 1 10 9 0 9 -4 16 -10 16 -5 0
-10 -4 -10 -9z"/>
<path d="M5362 5350 c0 -19 2 -27 5 -17 2 9 2 25 0 35 -3 9 -5 1 -5 -18z"/>
<path d="M4241 5354 c0 -11 3 -14 6 -6 3 7 2 16 -1 19 -3 4 -6 -2 -5 -13z"/>
<path d="M4950 5359 c0 -5 5 -7 10 -4 6 3 10 8 10 11 0 2 -4 4 -10 4 -5 0 -10
-5 -10 -11z"/>
<path d="M5430 5348 c-12 -22 -12 -22 6 -6 10 10 15 20 12 24 -4 3 -12 -5 -18
-18z"/>
<path d="M4305 5350 c3 -5 8 -10 11 -10 2 0 4 5 4 10 0 6 -5 10 -11 10 -5 0
-7 -4 -4 -10z"/>
<path d="M4890 5350 c-9 -6 -10 -10 -3 -10 6 0 15 5 18 10 8 12 4 12 -15 0z"/>
<path d="M5243 5345 c-3 -9 -3 -19 1 -22 3 -4 6 1 6 10 0 8 8 18 18 20 16 4
16 5 -1 6 -10 0 -20 -6 -24 -14z"/>
<path d="M4470 5343 c0 -6 8 -17 18 -24 16 -13 16 -13 2 6 -8 11 -16 22 -17
24 -2 2 -3 0 -3 -6z"/>
<path d="M3493 5333 c9 -2 23 -2 30 0 6 3 -1 5 -18 5 -16 0 -22 -2 -12 -5z"/>
<path d="M4630 5331 c0 -6 4 -13 10 -16 6 -3 7 1 4 9 -7 18 -14 21 -14 7z"/>
<path d="M4837 5321 c-4 -17 -3 -21 5 -13 5 5 8 16 6 23 -3 8 -7 3 -11 -10z"/>
<path d="M5048 5333 c7 -3 16 -2 19 1 4 3 -2 6 -13 5 -11 0 -14 -3 -6 -6z"/>
<path d="M5564 5318 l-19 -23 25 20 c14 11 27 21 29 22 2 2 0 3 -6 3 -5 0 -18
-10 -29 -22z"/>
<path d="M5635 5330 c-3 -6 1 -7 9 -4 18 7 21 14 7 14 -6 0 -13 -4 -16 -10z"/>
<path d="M3530 5290 c-23 -7 -23 -8 -3 -9 12 -1 25 4 28 9 3 6 5 10 3 9 -2 -1
-14 -5 -28 -9z"/>
<path d="M5580 5280 c-8 -5 -12 -12 -9 -15 4 -3 12 1 19 10 14 17 11 19 -10 5z"/>
<path d="M4725 5270 c3 -5 8 -10 11 -10 2 0 4 5 4 10 0 6 -5 10 -11 10 -5 0
-7 -4 -4 -10z"/>
<path d="M5345 5271 c-3 -5 -2 -12 3 -15 5 -3 9 1 9 9 0 17 -3 19 -12 6z"/>
<path d="M4378 5253 c7 -3 16 -2 19 1 4 3 -2 6 -13 5 -11 0 -14 -3 -6 -6z"/>
<path d="M4608 5253 c6 -2 18 -2 25 0 6 3 1 5 -13 5 -14 0 -19 -2 -12 -5z"/>
<path d="M3827 5231 c-4 -17 -3 -21 5 -13 5 5 8 16 6 23 -3 8 -7 3 -11 -10z"/>
<path d="M5103 5243 c9 -2 23 -2 30 0 6 3 -1 5 -18 5 -16 0 -22 -2 -12 -5z"/>
<path d="M5428 5243 c7 -3 16 -2 19 1 4 3 -2 6 -13 5 -11 0 -14 -3 -6 -6z"/>
<path d="M3678 5213 c7 -3 16 -2 19 1 4 3 -2 6 -13 5 -11 0 -14 -3 -6 -6z"/>
<path d="M3766 5202 c-3 -5 1 -9 9 -9 8 0 12 4 9 9 -3 4 -7 8 -9 8 -2 0 -6 -4
-9 -8z"/>
<path d="M4968 5193 c6 -2 18 -2 25 0 6 3 1 5 -13 5 -14 0 -19 -2 -12 -5z"/>
<path d="M5108 5193 c7 -3 16 -2 19 1 4 3 -2 6 -13 5 -11 0 -14 -3 -6 -6z"/>
<path d="M5138 5163 c7 -3 16 -2 19 1 4 3 -2 6 -13 5 -11 0 -14 -3 -6 -6z"/>
<path d="M5358 5163 c7 -3 16 -2 19 1 4 3 -2 6 -13 5 -11 0 -14 -3 -6 -6z"/>
<path d="M3637 5143 c-13 -13 -7 -33 11 -33 14 0 15 2 2 10 -13 9 -13 11 0 20
8 5 10 10 4 10 -6 0 -14 -3 -17 -7z"/>
<path d="M4090 5131 c5 -11 15 -23 21 -27 6 -3 3 5 -6 20 -20 30 -30 35 -15 7z"/>
<path d="M3691 5114 c0 -11 3 -14 6 -6 3 7 2 16 -1 19 -3 4 -6 -2 -5 -13z"/>
<path d="M4573 5070 c0 -30 2 -43 4 -27 2 15 2 39 0 55 -2 15 -4 2 -4 -28z"/>
<path d="M4596 5105 c4 -8 8 -15 10 -15 2 0 4 7 4 15 0 8 -4 15 -10 15 -5 0
-7 -7 -4 -15z"/>
<path d="M4388 5103 c7 -3 16 -2 19 1 4 3 -2 6 -13 5 -11 0 -14 -3 -6 -6z"/>
<path d="M4440 5102 c0 -7 -12 -13 -27 -13 -26 -2 -26 -2 -4 -6 24 -5 50 11
38 24 -4 3 -7 1 -7 -5z"/>
<path d="M4668 5083 c7 -3 16 -2 19 1 4 3 -2 6 -13 5 -11 0 -14 -3 -6 -6z"/>
<path d="M4602 5050 c0 -19 2 -27 5 -17 2 9 2 25 0 35 -3 9 -5 1 -5 -18z"/>
<path d="M4828 5053 c7 -3 16 -2 19 1 4 3 -2 6 -13 5 -11 0 -14 -3 -6 -6z"/>
<path d="M4143 5023 c9 -2 23 -2 30 0 6 3 -1 5 -18 5 -16 0 -22 -2 -12 -5z"/>
<path d="M4946 5021 c-4 -5 3 -7 14 -4 23 6 26 13 6 13 -8 0 -17 -4 -20 -9z"/>
<path d="M5090 5010 c-9 -6 -10 -10 -3 -10 6 0 15 5 18 10 8 12 4 12 -15 0z"/>
<path d="M5045 4990 c-3 -6 1 -7 9 -4 18 7 21 14 7 14 -6 0 -13 -4 -16 -10z"/>
<path d="M5130 4980 c-9 -6 -10 -10 -3 -10 6 0 15 5 18 10 8 12 4 12 -15 0z"/>
<path d="M4186 4953 c-6 -14 -5 -15 5 -6 7 7 10 15 7 18 -3 3 -9 -2 -12 -12z"/>
<path d="M4615 4959 c-11 -16 -1 -19 13 -3 7 8 8 14 3 14 -5 0 -13 -5 -16 -11z"/>
<path d="M4131 4934 c0 -11 3 -14 6 -6 3 7 2 16 -1 19 -3 4 -6 -2 -5 -13z"/>
<path d="M5038 4943 c7 -3 16 -2 19 1 4 3 -2 6 -13 5 -11 0 -14 -3 -6 -6z"/>
<path d="M4750 4895 c13 -14 26 -25 28 -25 3 0 -5 11 -18 25 -13 14 -26 25
-28 25 -3 0 5 -11 18 -25z"/>
<path d="M4555 4889 c-4 -6 -5 -12 -2 -15 2 -3 7 2 10 11 7 17 1 20 -8 4z"/>
<path d="M4429 4873 c-13 -16 -12 -17 4 -4 9 7 17 15 17 17 0 8 -8 3 -21 -13z"/>
<path d="M4661 4844 c0 -11 3 -14 6 -6 3 7 2 16 -1 19 -3 4 -6 -2 -5 -13z"/>
<path d="M3124 4484 c3 -9 6 -78 6 -155 0 -112 3 -139 14 -139 8 0 17 15 21
37 28 149 109 243 210 243 l35 0 0 -393 c0 -448 4 -428 -84 -441 -25 -4 -46
-11 -46 -17 0 -5 95 -9 235 -9 224 0 296 10 185 25 -37 5 -55 14 -70 32 -19
25 -20 41 -20 414 l0 389 40 0 c92 0 157 -66 195 -198 33 -114 45 -105 45 35
0 65 3 135 6 156 l7 37 -393 0 c-353 0 -392 -2 -386 -16z"/>
<path d="M3980 4486 c0 -9 12 -16 32 -18 56 -5 58 -14 58 -418 0 -401 0 -402
-60 -413 -16 -4 -30 -11 -30 -17 0 -6 73 -10 210 -10 180 0 210 2 210 15 0 11
-12 15 -44 15 -36 0 -48 5 -65 26 -19 25 -21 40 -21 200 l0 174 35 0 c79 0
132 -45 156 -132 6 -24 16 -38 25 -38 11 0 14 6 10 16 -3 9 -6 90 -6 180 0
130 -3 164 -13 164 -8 0 -20 -19 -27 -42 -24 -83 -77 -128 -150 -128 l-30 0 0
188 c0 226 -2 222 106 222 144 -1 184 -42 240 -247 2 -7 8 -13 14 -13 6 0 10
47 10 129 0 71 3 136 6 145 6 14 -28 16 -330 16 -285 0 -336 -2 -336 -14z"/>
<path d="M4720 4486 c0 -9 12 -16 32 -18 59 -6 59 -6 55 -493 -4 -484 -5 -493
-64 -546 -27 -23 -43 -29 -80 -29 l-46 0 27 25 c37 34 37 95 0 124 -47 37
-131 23 -153 -26 -31 -68 9 -123 104 -143 124 -26 262 15 336 98 69 79 71 96
76 547 5 440 6 445 63 445 20 0 30 5 30 15 0 13 -28 15 -190 15 -158 0 -190
-2 -190 -14z"/>
<path d="M5416 4298 c-240 -619 -251 -643 -298 -656 -10 -2 -18 -11 -18 -18 0
-11 25 -14 125 -14 69 0 125 4 125 9 0 5 -19 14 -43 19 -78 20 -85 83 -28 232
l29 75 129 2 c71 1 134 -1 140 -5 15 -10 93 -231 93 -264 0 -23 -6 -29 -40
-38 -85 -23 -51 -30 144 -30 192 0 232 7 171 30 -33 12 -38 24 -181 393 -69
177 -138 354 -153 392 l-28 70 -44 3 -45 3 -78 -203z m63 -70 c13 -35 38 -105
57 -156 19 -51 34 -95 34 -97 0 -3 -57 -5 -126 -5 -97 0 -125 3 -122 13 56
153 122 315 128 312 4 -2 17 -33 29 -67z"/>
<path d="M2517 2873 c7 -46 13 -55 13 -22 0 34 18 49 57 49 l33 0 0 -132 c0
-73 -4 -138 -8 -144 -4 -7 -16 -14 -27 -17 -11 -2 12 -5 50 -5 51 -1 64 2 48
8 -22 9 -23 14 -23 150 l0 140 29 0 c32 0 48 -15 61 -57 7 -25 8 -22 9 20 l1
47 -124 0 -125 0 6 -37z"/>
<path d="M4718 2900 c21 -9 22 -14 22 -137 0 -130 -3 -146 -30 -156 -8 -3 14
-5 50 -5 36 0 55 3 43 5 -21 4 -23 10 -23 74 0 66 1 69 24 69 26 0 41 -14 49
-45 2 -11 5 9 6 45 1 58 -1 62 -12 40 -8 -16 -23 -26 -40 -28 l-27 -3 0 70 0
71 49 0 c52 0 67 -10 81 -57 7 -25 8 -22 9 20 l1 47 -112 -1 c-78 0 -106 -3
-90 -9z"/>
<path d="M2813 2860 c15 -9 17 -27 17 -125 0 -98 -2 -115 -17 -124 -14 -8 -3
-10 42 -10 46 0 55 2 38 9 -20 8 -23 17 -23 60 0 48 1 50 29 50 35 0 46 -12
60 -66 6 -23 18 -47 26 -54 16 -13 65 -6 65 9 0 5 -8 7 -19 4 -15 -4 -20 4
-30 41 -6 25 -20 51 -32 60 l-21 14 24 13 c30 16 38 28 38 60 0 46 -31 62
-128 66 -66 3 -83 1 -69 -7z m135 -16 c15 -10 22 -25 22 -49 0 -39 -29 -65
-72 -65 -27 0 -28 1 -28 58 0 32 3 62 7 65 11 12 48 7 71 -9z"/>
<path d="M3088 2860 c21 -9 22 -14 22 -125 0 -111 -1 -116 -22 -125 -17 -7 -8
-9 37 -8 33 0 52 2 43 5 -16 4 -18 19 -18 123 0 103 2 120 18 129 13 8 2 10
-43 10 -46 0 -55 -2 -37 -9z"/>
<path d="M3238 2860 c21 -9 22 -15 22 -125 0 -111 -1 -116 -22 -125 -16 -6 3
-9 68 -9 78 -1 95 2 118 20 37 29 33 75 -9 104 l-30 20 23 22 c28 28 28 54 1
79 -17 15 -39 20 -108 21 -62 2 -80 0 -63 -7z m138 -25 c21 -31 11 -73 -19
-84 -21 -9 -21 -9 -2 -17 56 -21 71 -68 34 -105 -14 -14 -30 -19 -52 -17 l-32
3 -2 110 c-2 61 -1 116 2 123 8 22 53 14 71 -13z"/>
<path d="M3490 2863 c26 -10 30 -25 30 -119 0 -106 16 -139 76 -150 67 -12
123 36 111 98 -3 18 -5 16 -6 -9 -1 -43 -32 -73 -74 -73 -57 0 -67 22 -67 138
0 86 3 103 18 111 13 8 2 10 -43 10 -33 0 -53 -3 -45 -6z"/>
<path d="M3682 2858 c9 -7 17 -18 19 -25 3 -7 12 -3 26 12 l21 25 -41 0 c-34
0 -38 -2 -25 -12z"/>
<path d="M3790 2863 c26 -10 30 -26 30 -128 0 -102 -4 -118 -30 -128 -8 -3 8
-5 35 -6 40 0 45 2 28 9 -22 9 -23 15 -23 115 0 58 2 105 4 105 1 0 41 -53 87
-117 l84 -117 3 36 c2 22 -3 44 -12 55 -9 10 -43 55 -76 101 -59 81 -60 82
-102 81 -24 0 -36 -3 -28 -6z"/>
<path d="M3993 2845 c14 -15 23 -19 26 -12 2 7 10 18 19 25 13 10 9 12 -25 12
l-41 0 21 -25z"/>
<path d="M4171 2844 c-7 -16 -8 -30 -3 -33 11 -7 82 -169 82 -187 0 -7 -8 -15
-17 -17 -10 -3 5 -5 34 -6 l52 -1 -19 33 c-11 19 -38 76 -61 128 -22 52 -44
97 -48 102 -4 4 -13 -5 -20 -19z"/>
<path d="M4363 2859 c15 -9 17 -26 17 -124 0 -98 -2 -115 -17 -124 -13 -8 12
-10 90 -11 l107 0 -1 43 c-1 23 -4 32 -6 21 -7 -38 -37 -56 -84 -52 l-44 3 -3
115 c-2 99 0 116 15 127 14 11 9 13 -38 13 -41 -1 -50 -3 -36 -11z"/>
<path d="M4968 2860 c21 -9 22 -14 22 -125 0 -111 -1 -116 -22 -125 -16 -6 12
-9 90 -9 l112 -1 -1 43 -1 42 -9 -32 c-10 -36 -34 -47 -90 -41 -34 3 -34 3
-37 61 l-3 57 31 0 c22 0 33 -6 40 -22 7 -18 9 -13 9 27 0 40 -2 45 -9 28 -7
-17 -18 -23 -40 -23 l-31 0 3 58 c3 55 4 57 32 60 46 6 74 -6 84 -35 10 -28
10 -27 11 10 l1 37 -107 -1 c-75 0 -101 -3 -85 -9z"/>
<path d="M5233 2859 c15 -9 17 -26 17 -129 0 -104 -2 -119 -17 -123 -10 -3 21
-5 68 -6 104 -1 146 20 167 84 26 79 -2 148 -71 174 -38 15 -189 14 -164 0z
m150 -10 c28 -15 35 -25 47 -71 14 -50 2 -117 -26 -145 -28 -28 -98 -33 -108
-7 -3 9 -6 58 -6 109 0 51 3 100 6 109 7 19 55 21 87 5z"/>
<path d="M5535 2856 c16 -11 20 -29 23 -97 4 -103 -3 -146 -26 -152 -9 -3 34
-5 96 -6 l112 -1 0 43 -1 42 -17 -35 c-16 -33 -21 -35 -69 -38 -48 -3 -53 -1
-58 21 -4 13 -5 39 -3 58 2 28 7 35 30 37 18 2 31 -4 42 -20 16 -22 16 -21 16
27 0 48 -1 49 -16 27 -10 -14 -25 -22 -45 -22 -28 0 -29 1 -29 49 0 58 14 73
67 69 32 -3 41 -8 55 -38 l18 -35 0 43 0 42 -107 0 c-94 0 -104 -2 -88 -14z"/>
<path d="M5798 2860 c21 -9 22 -15 22 -125 0 -111 -1 -116 -22 -125 -18 -7 -9
-9 37 -9 45 0 56 2 43 10 -13 7 -18 23 -18 59 0 48 1 50 29 50 35 0 47 -14 56
-62 11 -59 29 -68 110 -59 39 5 63 9 54 10 -26 2 -29 26 -8 67 10 21 18 42 16
47 -1 5 -15 -18 -30 -51 -24 -51 -31 -59 -56 -60 -26 -1 -30 4 -40 43 -6 24
-20 50 -31 58 -19 13 -19 14 10 36 36 26 40 69 10 96 -17 15 -40 20 -113 22
-66 2 -86 0 -69 -7z m142 -20 c41 -41 10 -110 -50 -110 -30 0 -30 0 -30 58 0
32 3 62 7 65 13 14 54 6 73 -13z"/>
<path d="M6149 2813 c-32 -76 -34 -86 -9 -40 12 22 23 37 25 35 2 -1 21 -45
43 -96 40 -93 40 -93 19 -102 -16 -6 -7 -9 37 -9 50 -1 57 1 43 12 -9 6 -40
64 -67 127 -28 63 -55 118 -59 123 -4 4 -18 -19 -32 -50z"/>
<path d="M6353 2859 c15 -9 17 -26 17 -124 0 -98 -2 -115 -17 -124 -13 -8 12
-10 92 -11 l111 0 -5 43 c-3 23 -7 33 -9 21 -6 -37 -35 -56 -83 -52 l-44 3 -3
118 c-3 114 -2 118 20 127 18 7 9 9 -37 9 -45 0 -56 -2 -42 -10z"/>
<path d="M4137 2765 c-24 -50 -20 -58 4 -12 11 22 19 41 17 43 -3 2 -12 -12
-21 -31z"/>
<path d="M4100 2678 c-7 -18 -22 -43 -33 -55 l-20 -23 44 1 c24 0 37 3 29 6
-26 10 -29 26 -14 62 8 19 13 36 10 38 -2 2 -9 -11 -16 -29z"/>
<path d="M2183 2369 c15 -9 17 -28 17 -172 0 -177 -8 -207 -55 -207 -18 0 -22
4 -18 20 6 23 -22 39 -39 22 -16 -16 18 -52 49 -52 36 0 78 25 91 55 7 16 12
79 12 168 0 144 3 159 30 170 8 3 -12 6 -45 6 -45 0 -56 -2 -42 -10z"/>
<path d="M4167 2348 c-21 -50 -31 -92 -13 -53 11 22 16 26 20 15 17 -46 36
-104 36 -111 0 -13 -88 -11 -92 3 -2 6 -12 -11 -22 -38 -10 -27 -24 -59 -32
-70 -12 -21 -11 -22 22 -26 30 -3 33 -2 20 7 -19 14 -21 44 -4 80 11 24 16 26
66 23 53 -3 55 -4 70 -42 11 -27 12 -43 5 -55 -9 -14 -4 -16 35 -12 24 2 40 6
34 10 -6 3 -36 71 -67 151 -31 79 -58 146 -60 148 -2 2 -10 -11 -18 -30z"/>
<path d="M2642 2324 c-15 -11 -22 -25 -22 -50 0 -38 21 -64 72 -90 65 -33 86
-72 56 -102 -33 -33 -118 1 -118 48 0 11 -4 20 -10 20 -5 0 -10 -21 -10 -46 0
-39 2 -45 14 -35 11 9 20 9 35 2 36 -20 90 -13 116 14 48 47 27 91 -65 141
-76 41 -80 98 -7 107 l32 4 -35 1 c-20 1 -46 -5 -58 -14z"/>
<path d="M2781 2331 c-1 -8 -9 -11 -22 -8 -19 5 -19 4 -6 -11 7 -9 18 -26 22
-37 8 -19 9 -19 12 3 3 12 2 32 0 45 -2 12 -5 16 -6 8z"/>
<path d="M3354 2330 c-11 -4 -33 -22 -47 -40 -50 -59 -32 -182 33 -215 38 -19
83 -19 122 1 25 13 32 14 39 2 5 -8 8 6 8 37 l-1 50 -14 -32 c-29 -68 -108
-83 -148 -30 -17 22 -21 43 -21 97 0 83 23 123 73 128 41 4 66 -10 85 -50 l17
-33 0 38 c0 23 -4 36 -10 32 -5 -3 -20 1 -32 9 -24 17 -70 20 -104 6z"/>
<path d="M3765 2210 c-32 -71 -63 -131 -69 -131 -6 -1 5 -5 24 -8 43 -8 49 -5
25 13 -16 12 -17 17 -6 45 13 29 16 31 67 31 52 0 55 -1 71 -36 14 -29 15 -37
4 -43 -9 -6 3 -10 33 -12 41 -4 62 4 36 13 -5 2 -35 59 -66 128 -31 69 -57
126 -58 128 -2 1 -29 -56 -61 -128z m72 10 l21 -50 -49 0 c-27 0 -49 2 -49 5
0 10 44 95 50 95 3 0 16 -22 27 -50z"/>
<path d="M5670 2327 c-14 -7 -26 -23 -28 -36 -7 -45 7 -70 56 -97 65 -38 82
-54 82 -79 0 -29 -19 -45 -54 -45 -41 0 -52 9 -70 50 l-15 35 -1 -40 c0 -31 4
-41 18 -43 9 -1 38 -5 64 -8 41 -5 50 -3 72 20 31 30 33 69 7 95 -10 10 -41
31 -70 46 -77 42 -81 99 -8 108 l32 4 -30 1 c-16 1 -41 -4 -55 -11z"/>
<path d="M5801 2331 c-1 -8 -9 -11 -22 -8 -19 5 -19 4 -6 -11 7 -9 18 -26 22
-37 8 -19 9 -19 12 3 3 12 2 32 0 45 -2 12 -5 16 -6 8z"/>
<path d="M1518 2318 c8 -8 12 -50 12 -121 0 -88 -3 -112 -16 -121 -12 -9 -8
-11 23 -8 l38 4 -3 120 c-2 92 0 123 10 129 8 6 -4 9 -31 9 -35 0 -42 -3 -33
-12z"/>
<path d="M1656 2316 c35 -16 54 -56 54 -116 0 -60 -19 -100 -54 -116 -19 -8
-24 -13 -13 -14 31 0 76 29 92 60 8 16 15 52 15 81 0 45 -4 55 -34 85 -23 23
-43 34 -62 34 l-29 -1 31 -13z"/>
<path d="M1813 2323 c15 -4 17 -18 17 -120 0 -92 -3 -118 -15 -127 -12 -9 -5
-10 31 -7 26 2 41 6 35 10 -8 5 -11 43 -9 122 l3 114 43 3 c48 4 69 -8 75 -41
2 -13 5 -6 6 16 l1 37 -102 -1 c-57 -1 -95 -3 -85 -6z"/>
<path d="M2323 2319 c14 -8 17 -25 17 -99 0 -49 5 -100 11 -113 13 -29 48 -47
90 -47 73 0 99 47 99 174 0 58 4 86 13 89 6 3 -3 6 -22 6 -31 1 -33 0 -17 -12
16 -12 18 -26 15 -106 -4 -87 -6 -94 -32 -117 -36 -31 -62 -30 -92 1 -23 22
-25 32 -25 118 0 59 4 97 12 105 9 9 1 12 -37 12 -39 -1 -46 -3 -32 -11z"/>
<path d="M2840 2288 l0 -43 18 35 c13 28 24 36 50 38 l32 3 0 -120 c0 -86 -3
-121 -12 -124 -7 -3 9 -6 35 -6 44 -1 47 0 33 15 -13 12 -16 39 -16 125 l0
110 37 -3 c27 -2 41 -9 49 -26 l11 -23 7 23 c3 13 6 26 6 31 0 4 -56 7 -125 7
l-125 0 0 -42z"/>
<path d="M3148 2318 c19 -19 16 -228 -3 -242 -12 -9 -5 -10 32 -7 26 2 42 6
36 8 -10 3 -13 37 -13 123 0 85 3 120 13 123 6 3 -8 6 -32 6 -35 1 -42 -2 -33
-11z"/>
<path d="M3578 2323 c19 -8 17 -232 -3 -247 -12 -9 -5 -10 31 -8 33 3 43 7 35
15 -7 7 -11 54 -11 119 0 91 3 108 18 117 13 8 6 10 -33 10 -27 0 -44 -3 -37
-6z"/>
<path d="M4368 2318 c16 -16 16 -220 0 -236 -9 -9 -4 -12 23 -12 l34 0 -3 122
c-2 92 0 123 10 129 8 6 -4 9 -31 9 -35 0 -42 -3 -33 -12z"/>
<path d="M4506 2316 c35 -16 54 -56 54 -116 0 -60 -19 -100 -54 -116 -19 -8
-24 -13 -13 -14 31 0 76 29 93 62 11 22 15 48 12 86 -4 47 -10 60 -37 84 -19
17 -42 28 -59 28 l-27 -1 31 -13z"/>
<path d="M4663 2320 c14 -9 17 -27 17 -118 0 -71 -4 -112 -12 -120 -9 -9 -5
-12 18 -12 19 0 24 3 16 8 -9 6 -12 36 -10 113 l3 104 49 -119 50 -119 18 39
c10 21 35 75 55 119 l38 80 3 -99 c2 -59 -1 -103 -8 -111 -8 -10 -1 -14 35
-17 36 -2 42 -1 30 8 -20 15 -22 239 -2 247 6 3 -4 6 -23 6 l-36 1 -43 -100
c-24 -55 -46 -100 -50 -100 -3 0 -24 44 -46 98 l-40 97 -40 3 c-32 2 -36 0
-22 -8z"/>
<path d="M5043 2319 c14 -9 17 -26 17 -117 0 -65 -4 -112 -11 -119 -8 -8 2
-12 35 -15 36 -2 43 -1 31 8 -20 15 -22 239 -2 247 6 3 -10 6 -38 6 -39 0 -46
-2 -32 -10z"/>
<path d="M5198 2318 c8 -8 12 -49 12 -118 0 -69 -4 -110 -12 -118 -9 -9 -5
-12 18 -12 19 0 24 3 16 8 -9 6 -12 37 -10 115 l3 106 85 -118 c47 -66 88
-117 93 -114 4 2 7 60 7 128 0 89 3 125 13 128 6 3 -6 5 -28 5 -22 0 -33 -2
-25 -5 8 -3 18 -11 22 -17 10 -15 10 -156 1 -156 -5 0 -36 41 -71 90 -60 85
-66 90 -100 90 -28 0 -33 -3 -24 -12z"/>
<path d="M5493 2323 c15 -4 17 -19 17 -123 0 -85 -3 -120 -12 -123 -7 -3 7 -5
32 -5 25 0 39 2 33 5 -9 3 -13 37 -13 118 0 98 2 115 18 124 13 8 4 10 -38 10
-30 -1 -47 -3 -37 -6z"/>
<path d="M5860 2288 l0 -43 18 35 c14 29 23 35 55 38 l37 3 0 -110 c0 -86 -3
-113 -16 -125 -14 -15 -11 -16 31 -16 42 0 45 1 31 16 -13 12 -16 39 -16 125
l0 110 37 -3 c32 -3 41 -9 55 -38 l17 -35 1 43 0 42 -125 0 -125 0 0 -42z"/>
<path d="M6168 2323 c19 -8 17 -232 -3 -247 -12 -9 -5 -10 32 -7 26 2 42 6 36
8 -8 3 -13 25 -13 59 0 53 1 54 29 54 35 0 47 -14 60 -69 5 -23 12 -46 16 -49
4 -4 40 -7 81 -7 57 0 70 3 59 11 -18 13 -19 37 -5 65 9 15 22 19 63 19 51 0
54 -1 71 -37 14 -29 15 -38 4 -44 -8 -6 4 -9 31 -9 41 0 43 1 29 18 -8 9 -36
68 -64 130 -27 61 -52 112 -55 112 -3 0 -30 -54 -59 -121 -29 -66 -58 -122
-64 -124 -42 -14 -50 -10 -64 37 -7 28 -22 52 -34 59 -19 10 -19 12 11 30 59
36 32 120 -39 118 -15 0 -19 -3 -10 -6 41 -15 54 -78 22 -106 -10 -10 -33 -17
-50 -17 l-32 0 0 59 c0 38 4 61 13 64 6 3 -8 5 -33 5 -25 0 -39 -2 -32 -5z
m382 -99 c11 -26 20 -48 20 -50 0 -2 -20 -4 -45 -4 -25 0 -45 3 -45 7 0 15 35
93 42 93 4 0 16 -21 28 -46z"/>
<path d="M6673 2290 c2 -42 17 -57 17 -17 0 32 18 47 57 47 l33 0 0 -115 c0
-98 -2 -115 -17 -124 -14 -8 -7 -10 32 -10 28 0 44 3 38 6 -10 3 -13 38 -13
124 l0 120 37 -3 c31 -3 38 -8 49 -38 l12 -35 1 43 1 42 -124 0 -124 0 1 -40z"/>
<path d="M6978 2323 c19 -8 17 -232 -3 -247 -12 -9 -5 -10 31 -8 33 3 43 7 35
15 -7 7 -11 54 -11 119 0 91 3 108 18 117 13 8 6 10 -33 10 -27 0 -44 -3 -37
-6z"/>
<path d="M7097 2322 c7 -4 38 -64 69 -132 30 -69 57 -126 58 -128 2 -1 27 50
56 115 28 65 59 126 67 136 15 16 14 17 -23 16 -21 -1 -31 -3 -21 -6 9 -2 17
-11 17 -18 0 -12 -66 -173 -76 -183 -3 -4 -69 135 -79 169 -5 14 -2 25 6 30 9
6 -4 9 -36 9 -28 0 -45 -4 -38 -8z"/>
<path d="M7420 2258 c-18 -40 -35 -79 -37 -85 -4 -10 11 -13 55 -13 57 0 60
-1 72 -30 7 -16 10 -36 6 -45 -4 -12 3 -15 36 -15 38 0 40 1 26 18 -8 9 -37
68 -64 130 -27 61 -52 112 -55 112 -4 0 -21 -33 -39 -72z m66 -85 c-2 -2 -24
-3 -48 -1 l-45 3 24 54 24 54 25 -53 c13 -29 23 -55 20 -57z"/>
<path d="M4126 2245 c-9 -26 -7 -32 5 -12 6 10 9 21 6 23 -2 3 -7 -2 -11 -11z"/>
<path d="M1933 2224 c-10 -22 -10 -30 2 -48 14 -19 15 -18 15 27 0 26 -1 47
-2 47 -2 0 -8 -12 -15 -26z"/>
<path d="M1996 2120 c-3 -19 -14 -34 -28 -40 -21 -8 -20 -9 10 -9 31 -1 32 0
32 39 0 48 -5 51 -14 10z"/>
<path d="M7353 2109 l-21 -39 31 0 c28 0 29 1 13 13 -16 11 -17 17 -6 36 6 13
10 24 8 26 -2 2 -13 -14 -25 -36z"/>
</g>
</svg>
