<?xml version="1.0" encoding="UTF-8"?>
<svg id="Capa_3" data-name="Capa 3" xmlns="http://www.w3.org/2000/svg" xmlns:xlink="http://www.w3.org/1999/xlink" viewBox="0 0 414.42 269.13">
  <defs>
    <style>
      .cls-1 {
        fill: #be8040;
      }

      .cls-2 {
        fill: #112236;
      }

      .cls-3 {
        fill: url(#Degradado_sin_nombre_100);
      }

      .cls-4 {
        fill: url(#Degradado_sin_nombre_2);
      }
    </style>
    <linearGradient id="Degradado_sin_nombre_2" data-name="Degradado sin nombre 2" x1="124.25" y1="103.23" x2="270.41" y2="103.23" gradientUnits="userSpaceOnUse">
      <stop offset="0" stop-color="#e9c799"/>
      <stop offset="1" stop-color="#bf8041"/>
    </linearGradient>
    <linearGradient id="Degradado_sin_nombre_100" data-name="Degradado sin nombre 100" x1="0" y1="134.56" x2="181.93" y2="134.56" gradientUnits="userSpaceOnUse">
      <stop offset="0" stop-color="#fccd9b"/>
      <stop offset="1" stop-color="#c08041"/>
    </linearGradient>
  </defs>
  <g id="Capa_1" data-name="Capa 1">
    <g>
      <path class="cls-4" d="M270.41,68.28c0,7.22-.59,14.42-1.77,21.57h-34.1c1.23-8.98,1.85-18.03,1.85-27.12,0-19.97-2.84-33.84-8.51-41.6-5.67-7.76-13.19-11.65-22.56-11.65-10.11,0-19.91,3.64-29.4,10.91-1.1.84-2.18,1.72-3.25,2.63-1.23-2.19-2.59-4.22-4.08-6.1-.68-.87-1.4-1.7-2.15-2.5h0s0,0,0,0c.08-.04.16-.08.23-.13,14.42-7.64,29.64-11.47,45.68-11.47,18.98,0,33.4,5.8,43.27,17.39,9.86,11.59,14.79,27.61,14.79,48.08ZM192.95,182.7c-.98.91-1.98,1.79-2.98,2.63-9.25,7.77-19.3,11.65-30.14,11.65-9.52,0-17.47-3.99-23.84-11.96-1.26,1.5-5.59,6.63-11.73,13,8.2,3.75,17.72,5.63,28.55,5.63,16.02,0,31.12-3.89,45.3-11.65,5.05-2.77,9.89-5.86,14.52-9.3h-19.68Z"/>
      <path class="cls-3" d="M172.66,23.02c-1.23-2.19-2.59-4.22-4.08-6.1-.68-.87-1.4-1.7-2.15-2.5C157.5,4.81,144.25,0,126.67,0c-14.53,0-28.38,3.14-41.54,9.4-13.16,6.27-24.81,14.72-34.96,25.37-10.15,10.65-18.1,22.74-23.87,36.27-5.76,13.53-8.64,27.69-8.64,42.47,0,18.29,4.38,32.27,13.15,41.91,8.77,9.65,20.17,14.47,34.21,14.47,7.52,0,15.22-1.56,23.11-4.7,2.3-.91,4.57-2.04,6.8-3.37,5.41-3.23,10.6-7.68,15.57-13.36,7.02-8.02,12.78-19.05,17.29-33.08l-6.01-2.26c-6.27,17.54-13.41,29.57-21.43,36.09-2.37,1.93-4.71,3.57-7.01,4.92-5.49,3.23-10.8,4.85-15.92,4.85-7.52,0-13.47-3-17.85-9.02-4.39-6.01-6.58-15.66-6.58-28.94,0-11.02,1.5-23.05,4.51-36.08,3.01-13.03,7.46-25.43,13.34-37.21,5.89-11.78,13.03-21.42,21.42-28.94,8.39-7.52,17.85-11.28,28.38-11.28,8.27,0,14.85,3.39,19.74,10.15,3.09,4.27,4.1,8.45,4.68,11.08,3.44,15.79,2.65,28.02,2.65,28.02-1.48,22.98-2.28,38.27-8.64,59.01-3.49,11.39-7.75,22.32-12.76,32.79-3.26,6.81-6.83,13.42-10.73,19.83-2.06,3.38-5.43,8.79-10.01,15.21-4.87,6.83-9.05,11.92-11.13,14.41-7.9,9.45-15.02,16.41-19.3,20.42-3.95,3.7-10.66,9.92-20.38,16.92-6.41,4.62-11.5,7.67-13.05,8.59-4.79,2.85-10.8,6.09-17.91,9.23-6.37,2.81-14.36,5.87-23.81,8.44.75,2.5,1.5,5.01,2.26,7.51,6.85-1.39,12.65-2.99,17.19-4.4,1.28-.4,5.81-1.82,11.68-4.08,2.46-.95,7.88-3.09,15.11-6.55,2.85-1.36,14.12-6.83,29-16.3,4.69-2.99,10.99-7.02,18.92-13.02,6.15-4.65,17.42-13.62,30.1-26.76,6.14-6.37,10.47-11.5,11.73-13,6.13-7.31,15.65-18.79,24.58-35.42,10.26-19.11,14.81-35.82,16.72-43.92,4.34-18.41,4.65-32.82,4.65-38.4,0,0,.07-27.74-9.27-44.26Z"/>
      <g>
        <path class="cls-1" d="M212.53,110.09c-.54.75-.84,1.35-.92,1.8-.08.45.04.78.34.99.31.21.77.32,1.4.33l-.11.46c-.51-.03-.99-.05-1.45-.06-.46,0-.9-.01-1.31-.01-.37,0-.68,0-.93.01-.25,0-.5.03-.75.06l.12-.46c.23-.06.46-.17.7-.32.24-.15.5-.37.78-.67.28-.29.59-.67.91-1.15l9.8-13.78h.62l.92,14.44c.05.55.19.93.42,1.14.24.21.47.32.7.33l-.09.46c-.34-.03-.77-.05-1.29-.06-.52,0-1.02-.01-1.49-.01-.6,0-1.16,0-1.7.01-.54,0-.96.03-1.29.06l.09-.46c.73-.03,1.25-.16,1.56-.4.31-.24.44-.75.41-1.53l-.6-11.09.37-.3-7.23,10.19ZM214.48,107.06h6.7l-.18.46h-6.93l.41-.46Z"/>
        <path class="cls-1" d="M230.28,113.67h-2.41l2.76-9.87c.06-.2.11-.4.15-.61s.03-.38-.03-.52c-.06-.14-.21-.21-.44-.21-.31,0-.59.15-.84.46-.25.31-.52.87-.82,1.7l-.34.96h-.44l.57-1.7c.34-.93.75-1.56,1.25-1.88.5-.32,1.02-.48,1.57-.48.49,0,.85.1,1.08.3.23.2.37.46.43.77.05.31.05.66,0,1.03-.05.38-.13.75-.22,1.11l-2.27,8.93ZM231.22,109.19c.55-1.47,1.08-2.7,1.6-3.69.51-.99,1.01-1.77,1.5-2.35.49-.58.99-1,1.5-1.25s1.05-.38,1.62-.38c.73,0,1.24.17,1.53.51s.41.77.39,1.3c-.02.53-.13,1.08-.31,1.66l-2.23,6.73c-.15.41-.21.74-.16.98.05.24.21.36.5.36.26,0,.52-.15.79-.44.27-.29.55-.86.86-1.72l.34-.94h.44l-.57,1.68c-.21.64-.49,1.13-.82,1.47-.33.34-.67.57-1.03.7-.36.13-.71.2-1.04.2-.38,0-.7-.06-.96-.18-.26-.12-.46-.29-.6-.51-.18-.29-.25-.66-.21-1.11.05-.45.17-.97.37-1.55l2.14-6.45c.08-.23.14-.48.18-.76.05-.28.04-.52-.02-.72s-.25-.31-.57-.31c-.34,0-.7.17-1.1.51-.4.34-.82.82-1.25,1.44-.44.62-.86,1.35-1.27,2.19-.41.84-.81,1.76-1.19,2.74-.38.99-.73,2.03-1.06,3.13l.64-3.21ZM234.74,95.9c.46,0,.84.08,1.14.25.3.17.56.36.79.59.23.22.46.42.7.59.24.17.53.25.88.25.28,0,.55-.1.82-.31.27-.21.53-.55.79-1.02l.41.11c-.37.93-.84,1.61-1.42,2.02-.58.41-1.16.62-1.75.62-.46,0-.84-.08-1.14-.25-.3-.17-.56-.36-.79-.59-.23-.22-.46-.42-.7-.59-.24-.17-.52-.25-.86-.25-.29,0-.57.1-.84.3-.27.2-.53.54-.79,1.03l-.41-.11c.38-.95.86-1.63,1.45-2.03.58-.41,1.16-.61,1.72-.61Z"/>
        <path class="cls-1" d="M242.84,110.32c0-.67.09-1.41.28-2.2.18-.8.47-1.58.85-2.37.38-.78.85-1.49,1.39-2.12.54-.63,1.19-1.14,1.93-1.53.74-.38,1.57-.57,2.47-.57,1.03,0,1.84.3,2.43.91.6.61.9,1.53.9,2.77,0,.67-.09,1.41-.28,2.2-.18.8-.47,1.58-.85,2.36-.38.78-.85,1.49-1.39,2.12-.54.64-1.19,1.14-1.93,1.53-.74.38-1.57.57-2.47.57-1.03,0-1.84-.31-2.43-.92-.6-.61-.9-1.53-.9-2.76ZM249.61,101.98c-.44,0-.88.2-1.31.6-.43.4-.83.94-1.2,1.62-.38.68-.71,1.44-1,2.28-.29.84-.52,1.71-.68,2.62-.16.9-.24,1.76-.24,2.57,0,.64.1,1.11.29,1.41.19.3.47.45.84.45.44,0,.88-.2,1.31-.6.43-.4.83-.93,1.22-1.61.38-.67.72-1.43,1-2.26.28-.83.51-1.7.67-2.61.16-.9.24-1.78.24-2.62,0-.67-.09-1.15-.28-1.44s-.47-.42-.85-.42Z"/>
        <path class="cls-1" d="M257.15,113.32c.12.06.26.11.4.15.15.04.35.06.61.06.63,0,1.15-.2,1.56-.59.41-.39.62-.95.62-1.66,0-.47-.1-.96-.29-1.45s-.5-1.04-.93-1.65c-.35-.52-.69-1.04-1-1.55-.31-.51-.47-1.11-.47-1.8s.16-1.23.48-1.72c.32-.49.77-.88,1.34-1.16s1.22-.42,1.94-.42c.47,0,.94.06,1.41.17s.85.33,1.16.63c.31.31.46.75.46,1.33,0,.17-.04.36-.13.57-.08.21-.21.4-.38.55-.17.15-.39.23-.67.23-.29,0-.54-.11-.73-.32-.2-.21-.3-.49-.3-.83s.06-.62.18-.91c.12-.28.28-.54.48-.77-.26-.15-.6-.23-1.03-.23-.57,0-1.03.18-1.39.55-.36.37-.54.88-.54,1.54,0,.35.05.67.16.95.11.28.27.58.48.88.21.31.46.67.73,1.1.4.63.72,1.21.98,1.74.25.54.38,1.09.38,1.68,0,.69-.18,1.31-.54,1.85-.36.54-.85.97-1.46,1.27-.61.31-1.31.46-2.09.46-.55,0-1.08-.08-1.6-.24s-.93-.41-1.25-.76c-.32-.34-.48-.82-.48-1.41,0-.28.08-.55.24-.83s.42-.41.79-.41.66.16.84.47c.18.31.26.68.26,1.09,0,.31-.03.57-.09.8-.06.23-.11.44-.16.62Z"/>
      </g>
      <g>
        <path class="cls-2" d="M226.24,137.98h.59l-.78,2.28c-.75,2.15-2.01,3.22-3.78,3.22-.33,0-.65-.07-.94-.22-.29-.15-.51-.35-.66-.63-.12-.29-.19-.61-.19-.97,0-.54.15-1.4.44-2.56l.97-3.91c-1.21,2.98-2.39,5.11-3.53,6.38-1.15,1.27-2.4,1.91-3.75,1.91-1.75,0-2.63-.8-2.63-2.41,0-.67.15-1.44.44-2.31l3.03-9.13c.17-.5.25-.89.25-1.16,0-.52-.25-.78-.75-.78-.42,0-.82.23-1.2.7-.39.47-.79,1.3-1.2,2.49l-.41,1.16h-.59l.78-2.28c.75-2.15,2.01-3.22,3.78-3.22,1.46,0,2.19.65,2.19,1.94,0,.63-.17,1.44-.5,2.44l-2.97,8.94c-.21.63-.31,1.15-.31,1.56,0,.71.33,1.06,1,1.06.81,0,1.71-.6,2.69-1.8.98-1.2,1.95-2.86,2.91-4.99.96-2.13,1.79-4.52,2.5-7.19l.38-1.53c1.19-.04,2.14-.19,2.84-.44l-3.88,13.85c-.15.54-.22.95-.22,1.22,0,.48.22.72.66.72s.88-.24,1.27-.73c.38-.49.78-1.31,1.17-2.45l.41-1.16Z"/>
        <path class="cls-2" d="M230.82,142.8c.2.04.47.06.83.06.94,0,1.7-.28,2.28-.84.58-.56.88-1.35.88-2.38,0-.67-.12-1.32-.38-1.95-.25-.64-.67-1.36-1.25-2.17-.71-.96-1.22-1.75-1.55-2.36-.32-.61-.49-1.34-.49-2.17s.22-1.62.66-2.3c.44-.68,1.03-1.2,1.77-1.58.74-.38,1.55-.56,2.42-.56,1.08,0,1.99.2,2.72.61.73.41,1.09,1.11,1.09,2.11,0,.38-.12.74-.36,1.09-.24.35-.6.53-1.08.53-.35,0-.65-.13-.89-.38-.24-.25-.36-.56-.36-.94,0-.67.29-1.36.88-2.09-.4-.25-.92-.38-1.56-.38-.79,0-1.44.27-1.95.8-.51.53-.77,1.26-.77,2.17,0,.54.09,1.01.28,1.39.19.39.53.95,1.03,1.7l.56.81c.62.96,1.09,1.78,1.39,2.47.3.69.45,1.4.45,2.13,0,.94-.25,1.78-.73,2.53-.49.75-1.15,1.33-1.97,1.75-.82.42-1.71.63-2.67.63-1.19,0-2.19-.26-3-.77-.81-.51-1.22-1.29-1.22-2.33,0-.35.1-.68.3-.97.2-.29.51-.44.92-.44.46,0,.8.19,1.03.56.23.38.34.84.34,1.41,0,.35-.07.9-.22,1.63.21.1.41.18.61.22Z"/>
        <path class="cls-2" d="M244.06,140.39c-.06.25-.09.48-.09.69,0,.42.13.73.38.94.25.21.57.31.97.31.52,0,1.01-.22,1.45-.67.45-.45.89-1.27,1.33-2.45l.44-1.22h.59l-.66,1.97c-.44,1.29-1.01,2.2-1.7,2.74-.7.53-1.56.8-2.58.8-.94,0-1.64-.23-2.09-.69-.46-.46-.69-1.09-.69-1.91,0-.54.09-1.14.28-1.78l3.31-11.5h-2.81l.16-.63h2.81l1.38-4.75c1.13-.04,2.06-.19,2.81-.44l-1.47,5.19h4.13l-.09.63h-4.22l-3.63,12.79Z"/>
        <path class="cls-2" d="M255.97,128.48c0-.52-.23-.78-.69-.78s-.91.25-1.28.75c-.38.5-.77,1.31-1.19,2.44l-.44,1.16h-.59l.81-2.28c.42-1.19.97-2.02,1.67-2.5.7-.48,1.43-.72,2.2-.72,1.38,0,2.06.66,2.06,1.97,0,.69-.17,1.49-.5,2.41l-3.34,9.47c-.17.5-.25.89-.25,1.16,0,.52.25.78.75.78.44,0,.84-.24,1.22-.72.37-.48.78-1.3,1.22-2.47l.44-1.16h.59l-.81,2.28c-.42,1.15-.96,1.97-1.64,2.47-.68.5-1.41.75-2.2.75-1.46,0-2.19-.64-2.19-1.91,0-.6.19-1.43.56-2.47l3.34-9.47c.17-.5.25-.89.25-1.16ZM257.36,120.02c.47-.49,1.01-.73,1.61-.73.48,0,.86.16,1.16.47.29.31.44.7.44,1.16,0,.63-.24,1.18-.72,1.66-.48.48-1.02.72-1.63.72-.46,0-.83-.15-1.12-.45-.29-.3-.44-.68-.44-1.14,0-.63.23-1.18.7-1.67Z"/>
        <path class="cls-2" d="M267.21,128.85c-1.03,1.13-1.88,2.62-2.53,4.47-.66,1.86-.98,3.8-.98,5.85,0,1.02.19,1.78.58,2.27.39.49.92.73,1.61.73,1.71,0,3.27-1.04,4.69-3.13l.63.25c-.67,1.15-1.57,2.13-2.7,2.95-1.14.82-2.33,1.23-3.58,1.23s-2.28-.39-3.02-1.17c-.74-.78-1.11-1.92-1.11-3.42,0-1.69.4-3.5,1.19-5.44.79-1.94,1.91-3.57,3.35-4.91,1.44-1.33,3.07-2,4.91-2,.96,0,1.76.24,2.41.72.65.48.97,1.13.97,1.94,0,.65-.21,1.22-.62,1.73-.42.51-.95.77-1.59.77-.42,0-.73-.11-.95-.34-.22-.23-.33-.52-.33-.88,0-.58.23-1.09.69-1.52.46-.43,1.01-.7,1.66-.83-.44-.65-1.15-.97-2.13-.97-1.04,0-2.08.56-3.11,1.69Z"/>
        <path class="cls-2" d="M278.92,128.48c0-.52-.23-.78-.69-.78s-.91.25-1.28.75c-.38.5-.77,1.31-1.19,2.44l-.44,1.16h-.59l.81-2.28c.42-1.19.97-2.02,1.67-2.5.7-.48,1.43-.72,2.2-.72,1.38,0,2.06.66,2.06,1.97,0,.69-.17,1.49-.5,2.41l-3.34,9.47c-.17.5-.25.89-.25,1.16,0,.52.25.78.75.78.44,0,.84-.24,1.22-.72.37-.48.78-1.3,1.22-2.47l.44-1.16h.59l-.81,2.28c-.42,1.15-.96,1.97-1.64,2.47-.68.5-1.41.75-2.2.75-1.46,0-2.19-.64-2.19-1.91,0-.6.19-1.43.56-2.47l3.34-9.47c.17-.5.25-.89.25-1.16ZM280.31,120.02c.47-.49,1.01-.73,1.61-.73.48,0,.86.16,1.16.47.29.31.44.7.44,1.16,0,.63-.24,1.18-.72,1.66-.48.48-1.02.72-1.63.72-.46,0-.83-.15-1.12-.45-.29-.3-.44-.68-.44-1.14,0-.63.23-1.18.7-1.67Z"/>
        <path class="cls-2" d="M297.39,137.95h.59l-.78,2.28c-.42,1.15-.95,1.98-1.6,2.49-.65.51-1.31.77-2,.77-.4,0-.74-.07-1.03-.22-.29-.15-.52-.34-.69-.59-.19-.31-.28-.68-.28-1.09s.07-.93.22-1.47c.15-.54.24-.89.28-1.03l.56-2.25c-1,2.33-2.02,4.03-3.05,5.08s-2.11,1.58-3.24,1.58c-.96,0-1.69-.34-2.19-1.03-.5-.69-.75-1.6-.75-2.75,0-1.69.45-3.57,1.34-5.66.9-2.08,2.06-3.86,3.5-5.31,1.44-1.46,2.9-2.19,4.38-2.19.56,0,1.02.21,1.38.63.35.42.56,1,.63,1.75l.5-1.94c1.15-.04,2.1-.19,2.88-.44l-3.91,13.82c-.02.08-.06.25-.13.48-.06.24-.09.46-.09.67,0,.52.23.78.69.78.92,0,1.72-1.06,2.41-3.19l.37-1.16ZM289.39,141.14c.81-.9,1.61-2.09,2.39-3.58.78-1.49,1.42-3.08,1.92-4.77l.56-2.22c.02-.17.03-.4.03-.69,0-.85-.15-1.53-.45-2.02-.3-.49-.72-.73-1.27-.73-.9,0-1.84.69-2.84,2.08-1,1.39-1.84,3.09-2.52,5.13-.68,2.03-1.02,3.94-1.02,5.74,0,.86.09,1.47.28,1.84.19.37.46.56.81.56.58,0,1.28-.45,2.09-1.34Z"/>
        <path class="cls-2" d="M321.74,129.07c0,1.98-.62,4.27-1.84,6.88-1.23,2.61-2.67,4.94-4.31,7-1.94,2.42-3.99,4.15-6.16,5.19-1.1.52-2.01.78-2.72.78-.44,0-.81-.11-1.11-.34-.3-.23-.45-.54-.45-.94,0-.44.17-.78.5-1.03.33-.25.73-.38,1.19-.38s.86.11,1.27.33c.41.22.85.52,1.33.89,1.63-.88,3.19-2.13,4.69-3.75l-2.31-14.01c-.1-.65-.23-1.09-.38-1.34-.15-.25-.36-.38-.63-.38s-.55.2-.83.61c-.28.41-.62,1.16-1.02,2.27l-.41,1.16h-.59l.78-2.28c.73-2.13,1.93-3.19,3.6-3.19.67,0,1.17.21,1.52.63.34.42.59,1.17.73,2.25l1.59,11.75c1.15-1.58,2.14-3.25,2.97-4.99.83-1.74,1.42-3.46,1.75-5.17-.63-.33-1.18-.75-1.66-1.24-.48-.49-.72-1.04-.72-1.64,0-.48.15-.86.45-1.16s.68-.44,1.14-.44c1.08,0,1.63.84,1.63,2.53Z"/>
        <path class="cls-2" d="M206.32,132.06c.52-1.69,2.32-5,2.83-5.69.13-.17.26-.34.26-.35.13-.16.25-.32.38-.47.24-.28.48-.55.73-.8.08-.08.15-.15.23-.22.2-.19.4-.37.6-.54.04-.03.07-.06.11-.09.04-.04.07-.08.11-.11.08-.08.16-.16.25-.24.15-.14.31-.27.46-.4.07-.06.13-.12.2-.17.54-.25.95-.49,1.22-.71.02-.01.04-.03.05-.04.05-.04.09-.08.13-.12.01-.01.03-.03.04-.04.03-.04.06-.07.08-.11.01-.02.02-.03.03-.05.03-.04.04-.08.06-.12,0-.02,0-.02,0-.02.01-.04,0-.06.02-.14,0,0,0,0,0,0,0-.1-.06-.19-.16-.28-.09-.07-.19-.11-.32-.1-.03,0-.07.01-.1.02-.02,0-.04,0-.06.01-.36.13-.78.61-1.25,1.46,0,0,0,0-.01,0-.08.04-.14.07-.21.11-.8.4-1.47.7-1.98.89-.56.2-1.21.33-1.94.38-.32.02-.61,0-.9-.04-.22-.04-.43-.08-.64-.16-.47-.17-1.02-.45-1.66-.84-.62-.37-1.17-.65-1.65-.84-.27-.1-.56-.17-.86-.2-.24-.03-.49-.03-.75-.02-.01,0-.03,0-.04,0-.84.07-1.48.37-1.93.92-.1.12-.17.24-.25.37-.27.48-.39,1.03-.35,1.67.06.89.36,1.55.9,1.98.51.41,1.12.66,1.84.74.03,0,.06.01.1.02l.04-.48c-1.19-.14-1.83-.71-1.9-1.73-.03-.46.07-.83.32-1.1.16-.18.39-.31.67-.38.14-.04.29-.07.46-.08.16-.01.31,0,.46,0,.34,0,.67.02.96.07.42.08.95.21,1.59.39.6.18,1.12.31,1.55.39.36.07.75.08,1.16.07.08,0,.16,0,.24,0,.77-.06,1.62-.29,2.56-.69.1-.05.21-.09.32-.14.15-.07.29-.14.44-.21.19-.09.38-.2.57-.31.07-.04.13-.07.2-.11.18-.1.35-.2.53-.31-.06.05-.11.09-.16.14-.1.09-.2.17-.29.25-.23.17-.47.35-.69.52-.34.26-.67.51-.98.77-.08.07-.17.13-.25.2-.25.2-.49.4-.73.6-.22.19-.44.37-.64.56-.11.1-.22.2-.33.29-.35.32-.68.63-.98.94-.98.99-1.82,2.13-2.54,3.4,0,0-.13.23-.25.5-1.06,2.17-1.77,5.87-2.05,7.44-.2.76-.34,1.33-.42,1.71-.38,1.54-.72,2.77-1.03,3.74-.04.11-.07.23-.11.34-.02.05-.03.11-.05.15-.53,1.55-1.41,2.55-1.41,2.55-.29.32-.82.89-1.65,1.19-.41.15-.73.18-.84.19-.32.02-.69,0-1.07-.16-.66-.25-1.03-.73-1.21-.97-.24-.32-.39-.65-.48-.96-.01-.03-.03-.07-.04-.1-.14-.48-.15-.91-.15-1.15,0,0,0-1.18.59-2.15.1-.16.31-.51.71-.83.13-.1.24-.18.33-.23.05.09.33.63.96.8.45.12.82-.02.92-.06.16-.07.44-.22.68-.52.01-.01.03-.04.05-.07.42-.59.28-1.23.28-1.23-.02-.08-.18-.8-.76-1.01-.37-.13-.72,0-1,.12-.38.15-.64.38-.92.63-.18.16-.32.3-.43.43-.34.37-.77.85-1.15,1.6-.43.84-.58,1.59-.64,1.98-.08.5-.15.98-.03,1.61.04.2.13.62.38,1.09.12.23.29.48.51.71.36.38.72.57.8.61.07.04.14.06.21.08.49.2.94.21,1.33.22.48.01.91-.05,1.27-.14,0,0,.65-.13,1.23-.36.9-.36,2.46-1.82,3.78-4.18.02-.04.05-.11.09-.2.95-2.09,1.06-3.24,1.79-6.09.46-1.8.96-3.42,1.15-4.16,0-.03.02-.08.04-.16.09-.33.16-.58.26-.91.07-.23.18-.59.21-.7Z"/>
      </g>
      <g>
        <path class="cls-2" d="M180.52,155.3h-.68c.12-.8.18-1.51.18-2.12,0-.98-.16-1.79-.49-2.43-.37-.76-.92-1.35-1.64-1.77-.73-.42-1.52-.63-2.38-.63-1.7,0-3.35.8-4.94,2.4-1.59,1.6-2.88,3.61-3.86,6.04-.98,2.43-1.48,4.78-1.48,7.06,0,1.97.39,3.46,1.17,4.49.78,1.02,1.85,1.54,3.23,1.54.9,0,1.86-.21,2.86-.63,1-.42,1.88-1.01,2.61-1.77.53-.53.99-1.15,1.38-1.86.39-.71.85-1.71,1.38-3h.68c-.96,3.55-1.57,6.01-1.81,7.38h-.68c.06-.43.09-.78.09-1.05,0-.53-.12-.8-.37-.8-.14,0-.36.09-.65.28-1.07.7-2,1.2-2.8,1.52s-1.8.48-3.01.48c-2.28,0-4.04-.61-5.29-1.84-1.25-1.23-1.88-3.02-1.88-5.38s.59-4.74,1.77-7.13c1.18-2.4,2.8-4.38,4.86-5.93,2.06-1.56,4.32-2.34,6.78-2.34,1.19,0,2.1.17,2.72.51.62.34,1.25.84,1.86,1.49.14.18.3.28.46.28.18,0,.37-.15.57-.45.19-.3.42-.76.66-1.4h.65c-.68,1.76-1.33,4.12-1.97,7.07Z"/>
        <path class="cls-2" d="M182.91,160.39c.72-1.86,1.75-3.42,3.11-4.7,1.35-1.28,2.92-1.92,4.7-1.92,1.31,0,2.34.41,3.09,1.21.75.81,1.12,2.01,1.12,3.61s-.36,3.36-1.08,5.21c-.72,1.86-1.75,3.42-3.11,4.7-1.35,1.28-2.92,1.92-4.7,1.92-1.31,0-2.34-.41-3.09-1.21-.75-.81-1.12-2.01-1.12-3.61s.36-3.36,1.08-5.21ZM187.57,156.38c-.93,1.33-1.68,3-2.25,5-.56,2-.85,3.92-.85,5.77,0,.92.14,1.6.43,2.03.29.43.73.65,1.32.65,1.05,0,2.03-.67,2.97-2,.93-1.33,1.68-3,2.24-5,.56-2,.85-3.92.85-5.77,0-.92-.14-1.6-.43-2.03-.29-.43-.73-.65-1.32-.65-1.05,0-2.04.67-2.97,2Z"/>
        <path class="cls-2" d="M219.54,165.02l-.77,2.24c-.74,2.11-1.98,3.17-3.72,3.17-.92,0-1.56-.28-1.91-.83-.18-.31-.28-.67-.28-1.08,0-.55.17-1.35.52-2.4l2.92-8.79c.2-.61.31-1.16.31-1.63,0-.63-.23-.95-.68-.95-1.17,0-2.49,1.34-3.95,4.01-1.47,2.68-2.89,6.22-4.26,10.62l.03-.18-.21.8h-2.77l3.84-12.67c.2-.61.31-1.14.31-1.57,0-.68-.29-1.01-.86-1.01-.76,0-1.61.6-2.55,1.8-.94,1.2-1.87,2.83-2.78,4.9-.91,2.07-1.71,4.36-2.38,6.86l-.43,1.69h-2.68l3.69-13.19c.14-.57.22-.95.22-1.14,0-.51-.22-.77-.65-.77s-.87.24-1.25.72c-.38.48-.76,1.29-1.15,2.41l-.4,1.14h-.58l.77-2.24c.74-2.11,1.98-3.17,3.72-3.17,1.19,0,1.78.61,1.78,1.85,0,.53-.15,1.35-.46,2.46l-.98,3.91c1.23-2.99,2.39-5.11,3.47-6.35,1.09-1.24,2.31-1.86,3.66-1.86s2.03.72,2.03,2.15c0,.64-.14,1.47-.43,2.49l-1.11,4.12c.86-2.15,1.67-3.86,2.43-5.12.76-1.26,1.53-2.18,2.32-2.77.79-.58,1.67-.88,2.63-.88,1.43,0,2.15.77,2.15,2.31,0,.66-.14,1.44-.43,2.34l-2.98,8.98c-.16.53-.25.92-.25,1.17,0,.49.25.74.74.74.41,0,.8-.23,1.18-.69.38-.46.77-1.28,1.18-2.44l.4-1.14h.58Z"/>
        <path class="cls-2" d="M236,154.85c.56.73.85,1.81.85,3.24,0,1.66-.37,3.46-1.11,5.4-.74,1.94-1.79,3.58-3.17,4.92-1.37,1.34-2.95,2.01-4.74,2.01-.55,0-1.06-.16-1.51-.48-.45-.32-.78-.75-.98-1.31l-1.17,4.06c-.08.25-.12.49-.12.74,0,.53.23.91.68,1.14.45.23,1.1.34,1.94.34l-.18.65-.65-.03c-1.78-.06-2.94-.09-3.47-.09s-1.69.04-3.41.12l.18-.65c.74,0,1.27-.13,1.6-.4.33-.27.59-.77.8-1.51l5.75-20.51c-.61,1.37-1.33,2.58-2.15,3.63-.82,1.05-1.84,2.14-3.04,3.29l-.34-.4c.96-.94,1.77-1.78,2.41-2.52.65-.74,1.29-1.63,1.94-2.69.65-1.06,1.29-2.35,1.92-3.89l.12-.43c1.11-.04,2.04-.18,2.8-.43l-3.2,11.19c.96-2.28,1.92-3.93,2.87-4.95.95-1.02,1.96-1.54,3.03-1.54,1,0,1.79.36,2.35,1.09ZM230.91,167.68c.98-1.36,1.78-3.02,2.38-4.97.6-1.95.91-3.71.91-5.29,0-.88-.13-1.55-.38-2-.26-.45-.61-.68-1.06-.68-.57,0-1.25.47-2.01,1.4-.77.93-1.54,2.19-2.32,3.77-.78,1.58-1.47,3.3-2.06,5.17l-.8,2.8c.25.66.55,1.13.92,1.41.37.29.81.43,1.32.43,1.09,0,2.12-.68,3.11-2.04Z"/>
        <path class="cls-2" d="M251.49,154.25c.33.33.49.75.49,1.26,0,.61-.21,1.14-.65,1.57-.43.43-.93.65-1.51.65-.37,0-.67-.1-.89-.29-.23-.19-.34-.47-.34-.81,0-.47.12-.87.37-1.2.25-.33.58-.58,1.02-.77-.08-.08-.2-.12-.34-.12-1.11,0-2.31,1.19-3.61,3.58-1.3,2.39-2.53,5.54-3.67,9.46l-.61,2.43h-2.68l3.69-13.19c.14-.45.22-.85.22-1.2,0-.47-.22-.71-.65-.71s-.87.24-1.25.72c-.38.48-.76,1.29-1.15,2.41l-.4,1.14h-.58l.77-2.24c.74-2.11,1.98-3.17,3.72-3.17,1.17,0,1.75.59,1.75,1.78,0,.57-.14,1.41-.43,2.52l-.98,3.87c1.11-2.97,2.15-5.08,3.12-6.32.97-1.24,2.06-1.86,3.27-1.86.55,0,.99.16,1.32.49Z"/>
        <path class="cls-2" d="M252.22,160.39c.72-1.86,1.75-3.42,3.11-4.7,1.35-1.28,2.92-1.92,4.7-1.92,1.31,0,2.34.41,3.09,1.21.75.81,1.12,2.01,1.12,3.61s-.36,3.36-1.08,5.21c-.72,1.86-1.75,3.42-3.11,4.7-1.35,1.28-2.92,1.92-4.7,1.92-1.31,0-2.34-.41-3.09-1.21-.75-.81-1.12-2.01-1.12-3.61s.36-3.36,1.08-5.21ZM256.88,156.38c-.93,1.33-1.68,3-2.25,5s-.85,3.92-.85,5.77c0,.92.14,1.6.43,2.03.29.43.73.65,1.32.65,1.05,0,2.03-.67,2.97-2,.93-1.33,1.68-3,2.25-5,.56-2,.85-3.92.85-5.77,0-.92-.14-1.6-.43-2.03-.29-.43-.73-.65-1.32-.65-1.05,0-2.03.67-2.97,2Z"/>
        <path class="cls-2" d="M288.85,165.02l-.77,2.24c-.74,2.11-1.98,3.17-3.72,3.17-.92,0-1.56-.28-1.91-.83-.18-.31-.28-.67-.28-1.08,0-.55.17-1.35.52-2.4l2.92-8.79c.2-.61.31-1.16.31-1.63,0-.63-.23-.95-.68-.95-1.17,0-2.49,1.34-3.95,4.01-1.47,2.68-2.89,6.22-4.26,10.62l.03-.18-.21.8h-2.77l3.84-12.67c.2-.61.31-1.14.31-1.57,0-.68-.29-1.01-.86-1.01-.76,0-1.61.6-2.55,1.8-.94,1.2-1.87,2.83-2.78,4.9-.91,2.07-1.71,4.36-2.38,6.86l-.43,1.69h-2.68l3.69-13.19c.14-.57.22-.95.22-1.14,0-.51-.22-.77-.65-.77s-.87.24-1.25.72c-.38.48-.76,1.29-1.15,2.41l-.4,1.14h-.58l.77-2.24c.74-2.11,1.98-3.17,3.72-3.17,1.19,0,1.78.61,1.78,1.85,0,.53-.15,1.35-.46,2.46l-.98,3.91c1.23-2.99,2.39-5.11,3.47-6.35,1.09-1.24,2.31-1.86,3.66-1.86s2.03.72,2.03,2.15c0,.64-.14,1.47-.43,2.49l-1.11,4.12c.86-2.15,1.67-3.86,2.43-5.12.76-1.26,1.53-2.18,2.32-2.77.79-.58,1.67-.88,2.63-.88,1.43,0,2.15.77,2.15,2.31,0,.66-.14,1.44-.43,2.34l-2.98,8.98c-.16.53-.25.92-.25,1.17,0,.49.25.74.74.74.41,0,.8-.23,1.18-.69.38-.46.77-1.28,1.18-2.44l.4-1.14h.58Z"/>
        <path class="cls-2" d="M295.49,155.67c0-.51-.23-.77-.68-.77s-.89.25-1.26.74c-.37.49-.76,1.29-1.17,2.4l-.43,1.14h-.58l.8-2.24c.41-1.17.96-1.99,1.64-2.46.69-.47,1.41-.71,2.17-.71,1.35,0,2.03.65,2.03,1.94,0,.68-.16,1.47-.49,2.37l-3.29,9.32c-.16.49-.25.87-.25,1.14,0,.51.25.77.74.77.43,0,.83-.24,1.2-.71.37-.47.77-1.28,1.2-2.43l.43-1.14h.58l-.8,2.24c-.41,1.13-.95,1.94-1.61,2.43-.67.49-1.39.74-2.17.74-1.43,0-2.15-.63-2.15-1.88,0-.59.18-1.4.55-2.43l3.29-9.32c.16-.49.25-.87.25-1.14ZM296.86,147.35c.46-.48.99-.72,1.58-.72.47,0,.85.15,1.14.46.29.31.43.69.43,1.14,0,.61-.24,1.16-.71,1.63-.47.47-1,.71-1.6.71-.45,0-.82-.15-1.11-.45-.29-.3-.43-.67-.43-1.12,0-.61.23-1.16.69-1.65Z"/>
        <path class="cls-2" d="M302.08,169.75c.19.04.47.06.81.06.92,0,1.67-.28,2.25-.83.57-.55.86-1.33.86-2.34,0-.66-.12-1.3-.37-1.92-.25-.62-.66-1.34-1.23-2.14-.7-.94-1.2-1.72-1.52-2.32-.32-.6-.48-1.32-.48-2.14s.22-1.59.65-2.26c.43-.67,1.01-1.18,1.74-1.55.73-.37,1.52-.55,2.38-.55,1.07,0,1.96.2,2.68.6.72.4,1.08,1.09,1.08,2.08,0,.37-.12.73-.35,1.08-.24.35-.59.52-1.06.52-.35,0-.64-.12-.88-.37-.24-.25-.35-.55-.35-.92,0-.66.29-1.34.86-2.06-.39-.25-.9-.37-1.54-.37-.78,0-1.42.26-1.92.78-.5.52-.75,1.24-.75,2.14,0,.53.09.99.28,1.37.18.38.52.94,1.02,1.68l.55.8c.61.94,1.07,1.75,1.37,2.43.3.68.45,1.37.45,2.09,0,.92-.24,1.75-.72,2.49s-1.13,1.31-1.94,1.72c-.81.41-1.69.61-2.63.61-1.17,0-2.15-.25-2.95-.75-.8-.5-1.2-1.27-1.2-2.29,0-.35.1-.67.29-.95.19-.29.5-.43.91-.43.45,0,.79.18,1.02.55.23.37.34.83.34,1.38,0,.35-.07.88-.22,1.6.2.1.41.17.6.22Z"/>
        <path class="cls-2" d="M313.11,160.39c.72-1.86,1.75-3.42,3.11-4.7,1.35-1.28,2.92-1.92,4.7-1.92,1.31,0,2.34.41,3.09,1.21.75.81,1.12,2.01,1.12,3.61s-.36,3.36-1.08,5.21c-.72,1.86-1.75,3.42-3.11,4.7-1.35,1.28-2.92,1.92-4.7,1.92-1.31,0-2.34-.41-3.09-1.21-.75-.81-1.12-2.01-1.12-3.61s.36-3.36,1.08-5.21ZM317.76,156.38c-.93,1.33-1.68,3-2.25,5-.56,2-.85,3.92-.85,5.77,0,.92.14,1.6.43,2.03.29.43.73.65,1.32.65,1.05,0,2.03-.67,2.97-2,.93-1.33,1.68-3,2.25-5,.56-2,.85-3.92.85-5.77,0-.92-.14-1.6-.43-2.03-.29-.43-.73-.65-1.32-.65-1.05,0-2.03.67-2.97,2Z"/>
        <path class="cls-2" d="M350.07,154.29h-.61c.12-.59.18-1.18.18-1.75,0-1.21-.36-2.2-1.08-2.98-.72-.78-1.81-1.17-3.29-1.17-1.29,0-2.33.33-3.12.98-.79.66-1.18,1.63-1.18,2.92,0,1,.31,1.93.94,2.77.62.84,1.56,1.84,2.81,2.98.88.8,1.59,1.5,2.12,2.09.53.59.98,1.25,1.35,1.97.37.72.55,1.49.55,2.31,0,1.33-.38,2.45-1.15,3.37-.77.91-1.75,1.58-2.94,2.01-1.19.43-2.42.65-3.69.65-1.09,0-1.95-.13-2.6-.4-.65-.27-1.24-.6-1.77-1.01-.39-.31-.76-.46-1.11-.46-.25,0-.45.12-.61.37-.16.25-.38.68-.65,1.29h-.61c.33-.78.65-1.72.97-2.81.32-1.1.69-2.62,1.12-4.57h.61c-.18.96-.28,1.72-.28,2.28,0,1.5.41,2.66,1.23,3.47.82.82,2.08,1.23,3.78,1.23,1.39,0,2.5-.32,3.31-.95.81-.64,1.21-1.6,1.21-2.89,0-.78-.15-1.5-.46-2.15-.31-.66-.68-1.23-1.12-1.74-.44-.5-1.05-1.13-1.83-1.89-.82-.78-1.47-1.45-1.95-2-.48-.55-.89-1.2-1.23-1.94-.34-.74-.51-1.56-.51-2.46,0-1.27.32-2.36.97-3.26.65-.9,1.49-1.58,2.52-2.04,1.03-.46,2.13-.69,3.27-.69.84,0,1.57.1,2.18.31.61.21,1.22.53,1.81.98.49.37.83.55,1.01.55.16,0,.32-.13.48-.38.15-.26.33-.67.54-1.25h.61c-.74,1.87-1.34,3.96-1.81,6.27Z"/>
        <path class="cls-2" d="M352.93,160.39c.72-1.86,1.75-3.42,3.11-4.7,1.35-1.28,2.92-1.92,4.7-1.92,1.31,0,2.34.41,3.09,1.21.75.81,1.12,2.01,1.12,3.61s-.36,3.36-1.08,5.21c-.72,1.86-1.75,3.42-3.11,4.7-1.35,1.28-2.92,1.92-4.7,1.92-1.31,0-2.34-.41-3.09-1.21-.75-.81-1.12-2.01-1.12-3.61s.36-3.36,1.08-5.21ZM357.58,156.38c-.93,1.33-1.68,3-2.25,5-.56,2-.85,3.92-.85,5.77,0,.92.14,1.6.43,2.03.29.43.73.65,1.32.65,1.05,0,2.03-.67,2.97-2,.93-1.33,1.68-3,2.25-5,.56-2,.85-3.92.85-5.77,0-.92-.14-1.6-.43-2.03s-.73-.65-1.32-.65c-1.05,0-2.03.67-2.97,2Z"/>
        <path class="cls-2" d="M373.08,156.04c-1.01,1.11-1.84,2.57-2.49,4.4-.65,1.82-.97,3.74-.97,5.75,0,1,.19,1.75.57,2.23.38.48.91.72,1.58.72,1.68,0,3.22-1.02,4.61-3.07l.61.25c-.66,1.13-1.54,2.1-2.66,2.91-1.12.81-2.29,1.21-3.52,1.21s-2.24-.38-2.97-1.15c-.73-.77-1.09-1.89-1.09-3.37,0-1.66.39-3.44,1.17-5.35.78-1.91,1.88-3.52,3.29-4.83,1.41-1.31,3.02-1.97,4.83-1.97.94,0,1.73.24,2.37.71.64.47.95,1.11.95,1.91,0,.64-.2,1.2-.61,1.71s-.93.75-1.57.75c-.41,0-.72-.11-.94-.34-.21-.23-.32-.51-.32-.86,0-.57.23-1.07.68-1.49.45-.42.99-.69,1.63-.81-.43-.64-1.13-.95-2.09-.95-1.03,0-2.04.55-3.06,1.66Z"/>
        <path class="cls-2" d="M384.6,155.67c0-.51-.23-.77-.68-.77s-.89.25-1.26.74-.76,1.29-1.17,2.4l-.43,1.14h-.58l.8-2.24c.41-1.17.96-1.99,1.64-2.46.69-.47,1.41-.71,2.17-.71,1.35,0,2.03.65,2.03,1.94,0,.68-.16,1.47-.49,2.37l-3.29,9.32c-.16.49-.25.87-.25,1.14,0,.51.25.77.74.77.43,0,.83-.24,1.2-.71.37-.47.77-1.28,1.2-2.43l.43-1.14h.58l-.8,2.24c-.41,1.13-.95,1.94-1.61,2.43-.67.49-1.39.74-2.17.74-1.43,0-2.15-.63-2.15-1.88,0-.59.18-1.4.55-2.43l3.29-9.32c.16-.49.25-.87.25-1.14ZM385.97,147.35c.46-.48.99-.72,1.58-.72.47,0,.85.15,1.14.46.29.31.43.69.43,1.14,0,.61-.24,1.16-.71,1.63-.47.47-1,.71-1.6.71-.45,0-.82-.15-1.11-.45-.29-.3-.43-.67-.43-1.12,0-.61.23-1.16.69-1.65Z"/>
        <path class="cls-2" d="M402.77,164.99h.58l-.77,2.25c-.41,1.13-.93,1.94-1.57,2.44-.64.5-1.29.75-1.97.75-.39,0-.73-.07-1.02-.22-.29-.14-.51-.34-.68-.58-.18-.31-.28-.67-.28-1.08,0-.43.07-.91.22-1.45.14-.53.24-.87.28-1.01l.55-2.21c-.98,2.3-1.98,3.96-3,5-1.01,1.04-2.08,1.55-3.18,1.55-.94,0-1.66-.34-2.15-1.01-.49-.68-.74-1.58-.74-2.71,0-1.66.44-3.52,1.32-5.57.88-2.05,2.03-3.79,3.44-5.23,1.41-1.43,2.85-2.15,4.3-2.15.55,0,1,.21,1.35.61.35.41.55.98.61,1.72l.49-1.91c1.13-.04,2.07-.18,2.83-.43l-3.84,13.59c-.02.08-.06.24-.12.48-.06.24-.09.46-.09.66,0,.51.23.77.68.77.9,0,1.69-1.05,2.37-3.14l.37-1.14ZM394.9,168.12c.8-.88,1.58-2.05,2.35-3.52.77-1.47,1.4-3.03,1.89-4.69l.55-2.18c.02-.16.03-.39.03-.68,0-.84-.15-1.5-.45-1.98-.3-.48-.71-.72-1.25-.72-.88,0-1.81.68-2.8,2.04-.98,1.36-1.81,3.04-2.48,5.04-.67,2-1,3.88-1,5.64,0,.84.09,1.45.28,1.81.18.37.45.55.8.55.57,0,1.26-.44,2.06-1.32Z"/>
        <path class="cls-2" d="M407.81,168.46c0,.55.24.83.71.83.41,0,.79-.24,1.15-.71.36-.47.74-1.28,1.15-2.43l.4-1.14h.58l-.77,2.24c-.72,2.11-1.95,3.17-3.69,3.17-1.41,0-2.12-.67-2.12-2,0-.51.14-1.28.43-2.31l5.01-16.64c.1-.37.15-.66.15-.86,0-.41-.16-.71-.48-.89-.32-.18-.86-.28-1.61-.28l.22-.65c1.09-.02,2.06-.13,2.94-.34.87-.2,1.72-.51,2.54-.92l-6.43,21.83c-.12.43-.18.79-.18,1.08Z"/>
      </g>
    </g>
  </g>
</svg>